<svg width="323" height="451" viewBox="0 0 323 451" fill="none" xmlns="http://www.w3.org/2000/svg">
<path d="M136 1.00035C143.883 0.848223 151.766 0.743141 159.651 0.670756C162.333 0.643969 165.015 0.602225 167.697 0.547709C171.552 0.47493 175.406 0.440894 179.262 0.414409C180.461 0.383441 181.66 0.352473 182.895 0.320567C190.902 0.31733 190.902 0.317329 193.881 2.17085C196.886 5.42947 197.604 8.52981 197.488 12.8363C197.472 13.8998 197.456 14.9632 197.439 16.0589C197.397 17.1534 197.356 18.2478 197.312 19.3753C197.279 21.0518 197.279 21.0518 197.244 22.7621C197.185 25.5095 197.103 28.2542 197 31.0003C199.64 31.6603 202.28 32.3203 205 33.0003C205 33.6603 205 34.3203 205 35.0003C206.143 35.2382 206.143 35.2382 207.309 35.4808C213.575 36.8969 218.682 38.5633 224.062 42.1097C225.966 43.1847 225.966 43.1847 228.098 42.7777C232.245 41.0828 234.861 37.1887 237.562 33.7503C240.066 30.9253 240.579 30.7081 244 30.0003C244.268 29.3403 244.536 28.6803 244.812 28.0003C245.204 27.3403 245.596 26.6803 246 26.0003C249.859 25.0882 252.216 24.739 256 26.0003C257.366 27.64 258.695 29.3114 260 31.0003C261.645 32.688 263.313 34.3544 265 36.0003C265.804 36.8253 266.609 37.6503 267.437 38.5003C270.007 41.0729 270.007 41.0729 273 43.5003C276.634 46.5288 279.938 49.6089 282.812 53.3753C284.782 55.7383 286.722 57.5269 289.062 59.5003C294.67 64.3651 294.67 64.3651 296 68.0003C296 72.8833 295.891 74.9362 292.75 78.6878C291.842 79.451 290.935 80.2141 290 81.0003C286.128 84.7729 282.204 88.629 279 93.0003C279 93.6603 279 94.3203 279 95.0003C279.675 95.6481 279.675 95.6481 280.363 96.3089C282.382 98.3953 283.149 100.361 284.187 103.063C284.532 103.941 284.876 104.819 285.23 105.723C286 108 286 108 286 110C286.66 110 287.32 110 288 110C288.342 111.373 288.673 112.749 289 114.125C289.186 114.891 289.371 115.657 289.562 116.446C290 119 290 119 290 125C298.91 125 307.82 125 317 125C317 125.66 317 126.32 317 127C318.32 127.33 319.64 127.66 321 128C321.256 136.059 321.451 144.115 321.57 152.177C321.627 155.921 321.705 159.662 321.83 163.405C321.95 167.023 322.015 170.639 322.044 174.259C322.064 175.634 322.103 177.008 322.163 178.381C322.415 184.42 322.591 189.108 318.583 193.875C311.935 199.438 307.396 201.16 298.812 201.063C298.063 201.058 297.313 201.054 296.541 201.049C294.694 201.037 292.847 201.019 291 201C287.58 208.63 284.282 216.31 281 224C280.34 224 279.68 224 279 224C279 224.99 279 225.98 279 227C279.99 227.33 280.98 227.66 282 228C283.354 229.986 284.685 231.989 286 234C288.483 236.611 291.023 239.02 293.75 241.375C296.56 244.653 296.922 246.723 297 251C295.596 255.775 291.313 258.982 287.5 261.938C285.421 263.653 283.972 265.172 282.312 267.25C281.549 268.158 280.786 269.065 280 270C279.34 270 278.68 270 278 270C277.752 270.619 277.505 271.238 277.25 271.875C275.763 274.404 274.563 274.719 272 276C271.536 276.928 271.536 276.928 271.062 277.875C269.619 280.761 267.548 282.045 265 284C262.477 286.46 260.022 288.978 257.562 291.5C256.717 292.325 255.871 293.15 255 294C254.306 294.706 254.306 294.706 253.598 295.426C250.88 297.985 249.147 298.977 245.437 299.563C239.385 298.572 236.144 294.251 232 290C230.855 288.918 230.855 288.918 229.687 287.813C228 286 228 286 228 284C224.195 282.222 222.621 281.776 218.598 283.231C217.408 283.863 216.23 284.516 215.062 285.188C213.888 285.829 212.712 286.468 211.535 287.106C210.956 287.422 210.378 287.738 209.782 288.064C202.289 292 202.289 292 198 292C198.026 292.605 198.052 293.21 198.079 293.833C198.184 296.597 198.248 299.36 198.312 302.125C198.375 303.552 198.375 303.552 198.439 305.008C198.519 309.602 198.423 312.287 196.043 316.305C194.644 317.664 194.644 317.664 193 319C192.092 319.768 192.092 319.768 191.166 320.551C184.765 325.372 179.569 325.859 171.703 325.727C170.551 325.728 169.399 325.729 168.213 325.73C165.792 325.725 163.372 325.706 160.952 325.673C157.247 325.625 153.545 325.632 149.84 325.645C147.482 325.634 145.124 325.62 142.766 325.602C141.66 325.604 140.555 325.606 139.416 325.607C131.773 325.466 131.773 325.466 127.827 323.088C124.874 319.714 124.88 317.749 124.902 313.336C124.907 311.654 124.907 311.654 124.912 309.938C124.925 308.174 124.925 308.174 124.937 306.375C124.942 305.192 124.946 304.009 124.951 302.789C124.963 299.86 124.979 296.93 125 294C124.262 293.879 123.525 293.758 122.765 293.633C121.788 293.466 120.811 293.298 119.805 293.125C118.84 292.963 117.876 292.8 116.882 292.633C112.613 291.696 108.906 289.91 105 288C103.338 287.322 101.674 286.648 99.9999 286C99.9999 285.34 99.9999 284.68 99.9999 284C97.6899 283.34 95.3799 282.68 92.9999 282C92.1646 283.083 92.1646 283.083 91.3124 284.188C87.5929 288.712 84.0538 292.052 78.9999 295C78.6699 295.66 78.3399 296.32 77.9999 297C77.0099 297 76.0199 297 74.9999 297C74.9999 297.66 74.9999 298.32 74.9999 299C67.9082 299.612 67.9082 299.612 63.7499 296.813C61.2986 294.306 59.1449 291.768 56.9999 289C54.6031 286.481 52.2159 284.173 49.4999 282C44.7108 278.169 40.9127 273.696 36.9999 269C35.354 267.313 33.6876 265.646 31.9999 264C26.1106 258.245 26.1106 258.245 25.7499 254.188C26.0298 250.619 26.8406 248.824 28.9999 246C29.6599 246 30.3199 246 30.9999 246C31.2268 245.443 31.4537 244.887 31.6874 244.313C33.3642 241.358 35.5732 239.369 37.9999 237C39.0828 235.608 39.0828 235.608 40.1874 234.188C40.7856 233.466 41.3837 232.744 41.9999 232C42.6599 232 43.3199 232 43.9999 232C43.9999 231.34 43.9999 230.68 43.9999 230C43.3399 230 42.6799 230 41.9999 230C41.1623 228.044 40.33 226.085 39.4999 224.125C39.0359 223.035 38.5718 221.944 38.0937 220.821C36.9999 218 36.9999 218 36.9999 216C36.3399 216 35.6799 216 34.9999 216C33.6799 211.38 32.3599 206.76 30.9999 202C29.4208 201.986 27.8417 201.972 26.2148 201.957C24.1223 201.91 22.0299 201.862 19.9374 201.813C18.3799 201.804 18.3799 201.804 16.791 201.795C15.7758 201.766 14.7607 201.737 13.7148 201.707C12.7879 201.692 11.861 201.676 10.9059 201.66C6.66295 200.697 3.62718 199.606 0.999943 196C-0.0564582 191.373 0.0433072 186.819 0.105411 182.09C0.103234 180.717 0.0988305 179.344 0.0923041 177.97C0.0865076 175.097 0.105416 172.226 0.142277 169.354C0.187805 165.675 0.175161 162 0.144474 158.321C0.126662 155.487 0.137924 152.654 0.158115 149.82C0.16778 147.806 0.15436 145.792 0.140613 143.778C0.20153 140.408 0.301877 137.298 0.999943 134C3.91254 131.31 3.91254 131.31 6.99994 130C7.736 129.099 8.47205 128.198 9.23041 127.27C13.3805 123.869 17.1237 124.449 22.3124 124.688C23.2438 124.71 24.1751 124.733 25.1347 124.756C27.4238 124.815 29.7121 124.905 31.9999 125C33.4849 119.555 33.4849 119.555 34.9999 114C35.6599 114 36.3199 114 36.9999 114C37.1933 113.397 37.3867 112.794 37.5859 112.172C37.8463 111.373 38.1067 110.574 38.3749 109.75C38.7578 108.567 38.7578 108.567 39.1484 107.36C39.9517 105.134 40.8971 103.091 41.9999 101C42.6599 101 43.3199 101 43.9999 101C44.3387 97.83 44.3387 97.83 41.8124 95.6253C40.8843 94.7591 39.9562 93.8928 38.9999 93.0003C35.7373 89.8173 32.8229 86.576 29.9999 83.0003C29.4224 82.5672 28.8449 82.1341 28.2499 81.6878C26.1373 78.8358 26.6409 75.4249 26.9999 72.0003C28.1354 68.5939 29.6379 67.5112 32.3828 65.3246C35.5713 62.7136 38.3594 59.6775 41.1874 56.6878C42.9999 55.0003 42.9999 55.0003 44.9999 55.0003C45.3403 54.165 45.3403 54.165 45.6874 53.3128C48.457 48.4331 53.0688 45.0615 57.2968 41.4769C60.3328 38.8448 63.1789 36.1635 65.4999 32.8753C67.3508 30.5617 69.4542 29.4742 71.9999 28.0003C72.3299 27.3403 72.6599 26.6803 72.9999 26.0003C76.0624 24.9378 76.0624 24.9378 79.9999 25.0003C83.1198 26.8481 85.4797 29.4168 87.9999 32.0003C89.0569 33.0489 90.1156 34.0956 91.1757 35.141C94.139 38.0729 97.0743 41.0309 99.9999 44.0003C100.811 43.6136 101.622 43.2269 102.457 42.8285C121.228 34.0003 121.228 34.0003 126 34.0003C125.974 33.335 125.948 32.6697 125.921 31.9842C125.816 28.9482 125.751 25.9125 125.687 22.8753C125.646 21.8286 125.604 20.7819 125.56 19.7035C125.422 10.9719 125.422 10.9719 128.344 7.3441C130.884 5.10238 132.763 3.92526 136 3.00035C136 2.34035 136 1.68035 136 1.00035ZM125.473 89.8167C123.018 90.9918 120.536 92.0158 118 93.0003C118 93.6603 118 94.3203 118 95.0003C116.701 95.3407 116.701 95.3407 115.375 95.6878C110.119 97.732 105.986 101.19 103 106C103 106.66 103 107.32 103 108C102.01 108.33 101.02 108.66 99.9999 109C97.6699 112.218 97.6699 112.218 96.9999 116C96.3399 116 95.6799 116 94.9999 116C83.9895 136.334 79.8143 160.006 85.9999 182.688C86.6324 184.803 87.2837 186.913 87.9999 189C88.6599 189 89.3199 189 89.9999 189C90.0824 189.825 90.1649 190.65 90.2499 191.5C91.8498 198.967 96.2178 206.098 101 212C101.66 212 102.32 212 103 212C103.227 212.557 103.454 213.114 103.687 213.688C110.942 226.47 126.835 234.009 140 239C141.214 239.517 141.214 239.517 142.453 240.043C158.175 245.951 177.335 243.772 192.625 237.5C194.424 236.683 196.217 235.852 198 235C199.072 234.526 200.145 234.052 201.25 233.563C205.1 231.375 208.518 228.727 212 226C212.928 225.299 213.856 224.598 214.812 223.875C216.937 222.055 218.505 220.361 220 218C220 217.34 220 216.68 220 216C220.99 215.67 221.98 215.34 223 215C224.839 212.65 226.183 209.984 227.625 207.375C228.236 206.325 228.236 206.325 228.859 205.254C231.374 200.767 232.609 197.135 233 192C233.66 192 234.32 192 235 192C242.103 170.602 240.595 147.35 230.687 127.125C228.198 122.207 225.516 117.269 222 113C221.34 113 220.68 113 220 113C219.66 112.165 219.66 112.165 219.312 111.313C217.605 108.305 215.532 106.367 213 104C212.444 103.463 211.889 102.925 211.316 102.371C188.387 81.0624 153.441 76.2755 125.473 89.8167Z" fill="#47CCB3"/>
<path d="M97.7318 344.866C98.9517 344.862 100.172 344.857 101.429 344.853C102.788 344.853 104.147 344.854 105.506 344.854C106.931 344.851 108.357 344.848 109.783 344.844C113.661 344.835 117.539 344.833 121.417 344.832C124.65 344.831 127.883 344.828 131.117 344.824C138.742 344.816 146.367 344.814 153.992 344.814C161.868 344.815 169.745 344.804 177.621 344.789C184.375 344.776 191.129 344.77 197.883 344.771C201.921 344.771 205.959 344.768 209.996 344.758C213.792 344.748 217.587 344.748 221.382 344.755C222.778 344.756 224.173 344.754 225.569 344.748C227.469 344.74 229.368 344.746 231.268 344.752C232.865 344.752 232.865 344.752 234.495 344.751C237 345 237 345 239 347C239.259 349.49 239.259 349.49 239.266 352.593C239.268 353.706 239.271 354.818 239.273 355.965C239.266 357.131 239.258 358.298 239.25 359.5C239.258 360.666 239.265 361.833 239.273 363.035C239.271 364.147 239.268 365.26 239.266 366.406C239.263 367.43 239.261 368.454 239.259 369.509C239 372 239 372 237 374C235.68 374 234.36 374 233 374C232.67 375.65 232.34 377.3 232 379C212.868 379.046 193.736 379.082 174.604 379.103C165.722 379.114 156.839 379.128 147.956 379.151C140.216 379.17 132.476 379.183 124.736 379.188C120.636 379.19 116.536 379.197 112.435 379.211C108.579 379.225 104.723 379.229 100.867 379.226C99.449 379.226 98.0308 379.23 96.6126 379.238C94.6822 379.248 92.7517 379.244 90.8212 379.24C89.739 379.242 88.6568 379.244 87.5418 379.246C85 379 85 379 83 377C82.7412 374.509 82.7412 374.509 82.7344 371.406C82.7318 370.293 82.7292 369.181 82.7266 368.035C82.7382 366.285 82.7382 366.285 82.75 364.5C82.7423 363.333 82.7345 362.166 82.7266 360.965C82.7291 359.852 82.7317 358.74 82.7344 357.593C82.7366 356.569 82.7389 355.545 82.7412 354.49C83 352 83 352 85 350C85.99 350 86.98 350 88 350C88.4331 349.041 88.4331 349.041 88.875 348.062C90.9599 344.24 93.7174 344.872 97.7318 344.866Z" fill="#036842"/>
<path d="M139.957 129.871C141.869 129.866 141.869 129.866 143.82 129.861C145.222 129.863 146.625 129.865 148.027 129.867C149.456 129.867 150.885 129.866 152.313 129.864C155.312 129.863 158.311 129.865 161.309 129.87C165.158 129.875 169.006 129.872 172.854 129.866C175.806 129.863 178.758 129.864 181.71 129.866C183.129 129.867 184.548 129.866 185.967 129.864C187.949 129.861 189.931 129.866 191.914 129.871C193.043 129.872 194.173 129.872 195.337 129.873C198 130 198 130 200 131C200 131.66 200 132.32 200 133C200.66 133 201.32 133 202 133C202.054 134.771 202.093 136.542 202.125 138.313C202.148 139.299 202.171 140.285 202.195 141.301C202 144 202 144 200 147C198.68 147 197.36 147 196 147C195.629 147.959 195.629 147.959 195.25 148.938C194 151 194 151 191.875 151.75C191.256 151.833 190.637 151.915 190 152C189.505 148.04 189.505 148.04 189 144C184.07 143.975 179.141 143.957 174.211 143.945C172.534 143.94 170.857 143.933 169.18 143.925C166.77 143.913 164.359 143.907 161.949 143.902C161.199 143.897 160.449 143.892 159.676 143.887C156.51 143.886 154.027 143.991 151 145C151.722 145.701 152.444 146.403 153.188 147.125C155.993 149.923 158.464 152.957 161 156C162.648 157.685 164.31 159.357 166 161C167 162 167 162 167.312 164.25C166.902 167.862 165.499 169.428 163 172C162.34 172 161.68 172 161 172C160.773 172.552 160.546 173.104 160.312 173.672C158.613 176.687 156.452 178.812 154 181.25C152.67 182.588 152.67 182.588 151.312 183.953C149 186 149 186 147 186C146.34 187.32 145.68 188.64 145 190C148.63 190 152.26 190 156 190C156.144 188.701 156.289 187.401 156.438 186.063C156.875 182.125 156.875 182.125 158 181C159.666 180.959 161.334 180.957 163 181C163.33 179.35 163.66 177.7 164 176C165.65 176 167.3 176 169 176C169 175.34 169 174.68 169 174C169.784 174.186 170.567 174.371 171.375 174.563C173.971 175.26 173.971 175.26 176 174C176.99 174.495 176.99 174.495 178 175C178 174.34 178 173.68 178 173C178.66 173 179.32 173 180 173C180 171.68 180 170.36 180 169C182.97 169.33 185.94 169.66 189 170C189.33 170.99 189.66 171.98 190 173C190.33 171.35 190.66 169.7 191 168C193.64 168.33 196.28 168.66 199 169C198.34 171.31 197.68 173.62 197 176C195.35 176 193.7 176 192 176C191.67 177.65 191.34 179.3 191 181C188.018 181.773 185.024 182.412 182 183C181.67 184.32 181.34 185.64 181 187C180.34 187 179.68 187 179 187C179 187.66 179 188.32 179 189C181.452 188.894 181.452 188.894 184 188C185.375 185.524 185.375 185.524 186 183C187.65 183.33 189.3 183.66 191 184C191 187.63 191 191.26 191 195C191.99 195 192.98 195 194 195C194.99 192.03 194.99 192.03 196 189C198.867 189.574 199.861 189.862 202 192C202.301 194.277 202.301 194.277 202.312 196.938C202.329 197.813 202.346 198.688 202.363 199.59C202 202 202 202 200.73 203.817C199 205 199 205 195 205C194.856 205.64 194.711 206.279 194.562 206.938C194 209 194 209 193 210C190.808 210.11 188.612 210.149 186.417 210.161C185.385 210.169 185.385 210.169 184.332 210.176C182.047 210.191 179.762 210.198 177.477 210.203C175.893 210.209 174.31 210.215 172.727 210.221C169.403 210.231 166.079 210.237 162.755 210.24C158.492 210.246 154.229 210.27 149.966 210.298C146.694 210.317 143.423 210.322 140.151 210.324C138.579 210.327 137.007 210.335 135.436 210.348C133.238 210.365 131.04 210.363 128.842 210.357C127.591 210.36 126.339 210.364 125.049 210.368C122 210 122 210 120.049 208.665C118.405 206.055 119.392 203.917 120 201C119.67 200.01 119.34 199.02 119 198C120.194 194.626 122.076 192.854 124.812 190.625C127.337 188.495 129.37 186.556 131.5 184C134.626 180.249 138.081 176.924 142 174C142.66 174 143.32 174 144 174C144.248 173.381 144.495 172.763 144.75 172.125C146.206 169.649 147.378 169.049 150 168C146.916 164.891 143.793 161.829 140.645 158.785C139.034 157.211 137.423 155.637 135.812 154.063C134.993 153.277 134.174 152.491 133.33 151.682C126.012 144.485 126.012 144.485 125 139C126.32 137.68 127.64 136.36 129 135C129.99 135.33 130.98 135.66 132 136C132.144 135.196 132.289 134.391 132.438 133.563C133.462 128.894 135.53 129.874 139.957 129.871ZM178 179C179 181 179 181 179 181L178 179ZM172 181C172 182.65 172 184.3 172 186C172.33 186 172.66 186 173 186C173 184.35 173 182.7 173 181C172.67 181 172.34 181 172 181ZM163 185C164 187 164 187 164 187L163 185ZM162 187C163 189 163 189 163 189L162 187ZM163 189C163 189.66 163 190.32 163 191C164.32 190.67 165.64 190.34 167 190C165.68 189.67 164.36 189.34 163 189ZM173 190C172.67 190.66 172.34 191.32 172 192C172.66 192 173.32 192 174 192C174.33 192.99 174.66 193.98 175 195C175.33 193.68 175.66 192.36 176 191C175.01 190.67 174.02 190.34 173 190ZM167 195C167.33 195.99 167.66 196.98 168 198C168 197.01 168 196.02 168 195C167.67 195 167.34 195 167 195Z" fill="#02C3AA"/>
<path d="M191.175 381.768C193.597 381.756 196.019 381.739 198.44 381.717C201.821 381.687 205.201 381.677 208.582 381.672C210.084 381.654 210.084 381.654 211.617 381.635C212.536 381.638 213.454 381.641 214.401 381.644C215.197 381.64 215.994 381.637 216.814 381.633C219.579 382.098 220.964 383.102 223 385C223.47 387.345 223.47 387.345 223.425 390.071C223.413 391.538 223.413 391.538 223.4 393.035C223.371 394.055 223.342 395.075 223.312 396.125C223.302 397.153 223.293 398.18 223.283 399.239C223.167 406.832 223.167 406.832 222 408C220.333 408.041 218.666 408.043 217 408C216.505 410.475 216.505 410.475 216 413C177.72 413 139.44 413 99.9995 413C98.18 409.361 98.8148 405.069 98.812 401.063C98.7998 400.143 98.7875 399.223 98.7749 398.276C98.773 397.392 98.7711 396.508 98.7691 395.598C98.765 394.789 98.7608 393.979 98.7566 393.145C98.9995 391 98.9995 391 101 388C102.32 388 103.64 388 105 388C105.66 386.35 106.32 384.7 107 383C135.054 382.407 163.113 381.885 191.175 381.768Z" fill="#02522D"/>
<path d="M129 421C152.1 421 175.2 421 199 421C199 431.902 199 431.902 194.453 436.598C192.68 438.131 190.852 439.563 189 441C188.072 441.866 187.144 442.733 186.188 443.625C177.445 450.139 168.713 450.652 158.062 450.562C156.769 450.586 155.475 450.61 154.143 450.635C144.925 450.621 136.782 449.374 129.77 442.961C125.672 438.576 123.106 434.797 122.875 428.688C122.937 427.357 122.937 427.357 123 426C124.98 426 126.96 426 129 426C128.67 425.01 128.34 424.02 128 423C128.33 422.34 128.66 421.68 129 421Z" fill="#004B27"/>
<path d="M7.99994 130C8.00359 130.745 8.00723 131.49 8.01099 132.258C8.04885 139.277 8.10567 146.295 8.18385 153.314C8.22337 156.922 8.25553 160.53 8.27094 164.139C8.28608 167.621 8.32047 171.103 8.36825 174.584C8.39032 176.56 8.39242 178.536 8.39429 180.512C8.41401 181.713 8.43373 182.914 8.45404 184.152C8.46293 185.211 8.47181 186.27 8.48096 187.361C8.76517 190.113 8.76517 190.113 10.8622 191.839C13.6308 193.343 15.7159 193.432 18.8593 193.512C19.9744 193.547 21.0894 193.583 22.2382 193.619C23.3971 193.642 24.556 193.664 25.7499 193.688C26.9243 193.722 28.0986 193.756 29.3085 193.791C32.2056 193.873 35.1023 193.943 37.9999 194C38.2797 194.92 38.5594 195.841 38.8476 196.789C41.4165 204.983 44.5213 212.487 48.5468 220.074C50.9077 224.828 50.9077 224.828 50.9999 227C49.5937 228.859 49.5937 228.859 47.4999 230.75C38.5507 238.589 38.5507 238.589 33.5663 248.824C34.1319 252.967 36.0841 254.976 38.9374 257.812C39.4345 258.327 39.9316 258.842 40.4438 259.373C41.4613 260.422 42.4854 261.465 43.5161 262.501C44.8842 263.883 46.2229 265.294 47.5585 266.707C51.2845 270.596 53.9396 273.073 58.9999 275C60.3663 276.64 61.6949 278.311 62.9999 280C64.8298 281.612 66.7017 283.149 68.6093 284.668C69.0682 285.108 69.5271 285.547 69.9999 286C69.9999 286.66 69.9999 287.32 69.9999 288C70.6599 288 71.3199 288 71.9999 288C72.3299 288.66 72.6599 289.32 72.9999 290C75.095 290.391 75.095 290.391 77.4999 290.5C79.9687 290.656 79.9687 290.656 81.9999 291C82.3299 291.66 82.6599 292.32 82.9999 293C82.0409 293.433 82.0409 293.433 81.0624 293.875C78.8479 294.828 78.8479 294.828 77.9999 297C77.0099 297 76.0199 297 74.9999 297C74.9999 297.66 74.9999 298.32 74.9999 299C67.9082 299.611 67.9082 299.611 63.7499 296.812C61.2986 294.305 59.1449 291.768 56.9999 289C54.6031 286.48 52.2159 284.173 49.4999 282C44.7108 278.169 40.9127 273.695 36.9999 269C35.354 267.313 33.6876 265.645 31.9999 264C26.1106 258.244 26.1106 258.244 25.7499 254.188C26.0298 250.619 26.8406 248.824 28.9999 246C29.6599 246 30.3199 246 30.9999 246C31.2268 245.443 31.4537 244.886 31.6874 244.312C33.3642 241.358 35.5732 239.369 37.9999 237C38.7218 236.072 39.4437 235.144 40.1874 234.188C40.7856 233.466 41.3837 232.744 41.9999 232C42.6599 232 43.3199 232 43.9999 232C43.9999 231.34 43.9999 230.68 43.9999 230C43.3399 230 42.6799 230 41.9999 230C41.1623 228.044 40.33 226.085 39.4999 224.125C39.0359 223.034 38.5718 221.944 38.0937 220.82C36.9999 218 36.9999 218 36.9999 216C36.3399 216 35.6799 216 34.9999 216C33.0199 209.07 33.0199 209.07 30.9999 202C29.4208 201.986 27.8417 201.972 26.2148 201.957C24.1223 201.91 22.0299 201.862 19.9374 201.812C18.3799 201.804 18.3799 201.804 16.791 201.795C15.7758 201.766 14.7607 201.737 13.7148 201.707C12.7879 201.691 11.861 201.676 10.9059 201.659C6.66295 200.697 3.62718 199.605 0.999943 196C-0.0564582 191.373 0.0433072 186.819 0.105411 182.09C0.103234 180.717 0.0988305 179.343 0.0923041 177.97C0.0865076 175.097 0.105416 172.226 0.142277 169.353C0.187805 165.675 0.175156 161.999 0.144469 158.321C0.126657 155.487 0.137918 152.654 0.15811 149.82C0.167774 147.806 0.15436 145.792 0.140613 143.778C0.301167 134.896 0.301167 134.896 2.35605 132.262C4.09847 131.064 5.80363 130 7.99994 130Z" fill="#010905"/>
<path d="M209 88.9996C209 89.6596 209 90.3196 209 90.9996C209.692 91.2136 210.384 91.4276 211.098 91.6481C214.852 93.3962 217.449 95.7971 220.438 98.6246C221.015 99.1673 221.593 99.71 222.188 100.269C226.314 104.209 229.949 108.158 233 113C233.571 113.879 234.142 114.758 234.73 115.664C243.114 129.212 246.179 141.969 246.188 157.75C246.2 158.987 246.212 160.225 246.225 161.5C246.235 168.291 245.891 174.467 244 181C243.74 181.993 243.479 182.987 243.211 184.011C238.255 199.876 228.04 215.557 215 226C212.77 226.711 212.77 226.711 211 227C211.875 225.979 212.75 224.958 213.625 223.937C214.177 223.287 214.728 222.638 215.297 221.968C216.325 220.78 217.372 219.608 218.453 218.468C221.982 214.668 224.654 210.474 227.25 206C227.591 205.418 227.933 204.837 228.285 204.238C230.555 200.215 231.889 196.442 233 192C233.66 192 234.32 192 235 192C240.299 167.357 239.352 144.47 227 122C226.088 120.648 225.153 119.313 224.188 118C222 115 222 115 222 113C221.34 113 220.68 113 220 113C219.381 112.03 218.762 111.061 218.125 110.062C214.247 104.411 208.573 100.841 203 96.9996C202.206 96.4402 201.412 95.8807 200.594 95.3043C183.58 84.1752 162.642 81.0094 142.848 84.566C136.665 85.9585 131.142 88.092 125.473 90.9137C122.975 92.0107 120.686 92.5672 118 92.9996C118 93.6596 118 94.3196 118 94.9996C114.04 96.9796 114.04 96.9796 110 98.9996C112.117 94.7663 114.213 93.0844 118 90.5621C118.583 90.1681 119.166 89.7742 119.767 89.3683C146.421 71.6622 181.812 72.7713 209 88.9996Z" fill="#040B05"/>
<path d="M139.957 129.871C141.232 129.868 142.506 129.865 143.82 129.861C145.222 129.863 146.625 129.865 148.027 129.867C149.456 129.867 150.885 129.866 152.313 129.865C155.312 129.863 158.311 129.865 161.309 129.87C165.158 129.876 169.006 129.872 172.854 129.866C175.806 129.863 178.758 129.864 181.71 129.866C183.129 129.867 184.548 129.866 185.967 129.864C187.949 129.861 189.931 129.866 191.914 129.871C193.043 129.872 194.173 129.872 195.337 129.873C198 130 198 130 200 131C200 131.66 200 132.32 200 133C200.66 133 201.32 133 202 133C202.054 134.771 202.093 136.542 202.125 138.313C202.148 139.299 202.171 140.285 202.195 141.301C202 144 202 144 200 147C198.68 147 197.36 147 196 147C195.752 147.64 195.505 148.279 195.25 148.938C194 151 194 151 191.875 151.75C190.947 151.874 190.947 151.874 190 152C189.505 148.04 189.505 148.04 189 144C184.07 143.976 179.141 143.957 174.211 143.945C172.534 143.94 170.857 143.933 169.18 143.925C166.77 143.913 164.359 143.907 161.949 143.903C161.199 143.897 160.449 143.892 159.676 143.887C156.51 143.887 154.027 143.991 151 145C151.722 145.702 152.444 146.403 153.188 147.125C155.993 149.923 158.464 152.957 161 156C162.648 157.686 164.31 159.357 166 161C167 162 167 162 167.312 164.25C166.902 167.862 165.499 169.428 163 172C162.34 172 161.68 172 161 172C160.773 172.552 160.546 173.104 160.312 173.672C158.613 176.687 156.452 178.813 154 181.25C153.113 182.142 152.226 183.034 151.312 183.953C149 186 149 186 147 186C146.34 187.32 145.68 188.64 145 190C149.29 190.33 153.58 190.66 158 191C158 191.66 158 192.32 158 193C158.66 193 159.32 193 160 193C159.67 194.98 159.34 196.96 159 199C158.34 199 157.68 199 157 199C157 198.01 157 197.02 157 196C149.74 196 142.48 196 135 196C135.495 195.01 135.495 195.01 136 194C136.99 194 137.98 194 139 194C139 193.34 139 192.68 139 192C139.99 191.505 139.99 191.505 141 191C140.756 190.267 140.512 189.533 140.26 188.777C140 186 140 186 141.539 183.78C142.298 183.052 143.057 182.324 143.84 181.574C145.063 180.38 145.063 180.38 146.311 179.162C147.177 178.346 148.044 177.529 148.938 176.688C149.801 175.852 150.664 175.016 151.553 174.155C153.689 172.089 155.838 170.039 158 168C152.522 172.528 147.569 177.396 142.719 182.584C139.648 185.754 137.636 187.75 133 188C134.531 184.323 136.734 182.101 139.605 179.375C140.506 178.504 141.406 177.632 142.334 176.735C144.242 174.906 146.157 173.083 148.076 171.266C148.973 170.394 149.869 169.523 150.793 168.625C151.623 167.834 152.454 167.042 153.309 166.227C155.209 164.194 155.209 164.194 154.99 161.953C153.764 159.535 152.319 158.014 150.359 156.137C149.618 155.414 148.877 154.692 148.113 153.948C147.333 153.202 146.554 152.456 145.75 151.688C140.62 146.761 135.766 142.072 132 136C132.272 129.746 134.244 129.875 139.957 129.871Z" fill="#40DCC6"/>
<path d="M100.5 273C103 274 103 274 105.375 275.938C108.59 278.463 111.054 279.071 115 280C115 280.66 115 281.32 115 282C116.12 282.254 117.24 282.508 118.395 282.77C119.867 283.117 121.34 283.464 122.812 283.812C123.55 283.978 124.288 284.144 125.049 284.314C127.861 284.989 130.471 285.704 133.004 287.121C134.696 290.313 134.263 293.736 134.125 297.25C133.658 307.498 133.658 307.498 137 317C138.114 316.752 138.114 316.752 139.25 316.5C146.378 315.55 153.488 315.783 160.625 316.562C165.004 317.013 168.956 316.793 173.312 316.27C176.505 315.949 179.667 315.818 182.875 315.75C184.48 315.711 184.48 315.711 186.117 315.672C189.376 316.043 190.51 316.975 193 319C186.057 324.816 180.617 325.876 171.703 325.727C170.551 325.728 169.4 325.729 168.213 325.73C165.792 325.725 163.372 325.706 160.952 325.672C157.247 325.625 153.545 325.631 149.84 325.645C147.482 325.633 145.124 325.619 142.766 325.602C141.66 325.603 140.555 325.605 139.416 325.607C131.773 325.466 131.773 325.466 127.827 323.087C124.874 319.713 124.88 317.749 124.902 313.336C124.906 312.214 124.909 311.093 124.912 309.938C124.92 308.762 124.929 307.586 124.938 306.375C124.942 305.192 124.947 304.008 124.951 302.789C124.963 299.859 124.979 296.93 125 294C124.262 293.879 123.525 293.758 122.765 293.633C121.788 293.465 120.811 293.298 119.805 293.125C118.84 292.963 117.876 292.8 116.882 292.633C112.613 291.695 108.906 289.91 105 288C103.338 287.322 101.674 286.648 100 286C100 285.34 100 284.68 100 284C98.02 283.34 96.04 282.68 94 282C93.67 280.35 93.34 278.7 93 277C97.2424 273 97.2424 273 100.5 273Z" fill="#000502"/>
<path d="M88 348C90.4797 350.48 90.2795 351.331 90.3789 354.754C90.4131 355.69 90.4472 356.627 90.4824 357.592C90.5088 358.572 90.5353 359.552 90.5625 360.562C90.6222 362.501 90.6858 364.44 90.7539 366.379C90.7778 367.241 90.8018 368.103 90.8264 368.99C90.7826 370.997 90.7826 370.997 92 372C93.8092 372.109 95.6227 372.147 97.4352 372.158C98.6146 372.168 99.7939 372.178 101.009 372.188C102.967 372.197 102.967 372.197 104.965 372.205C106.345 372.215 107.724 372.225 109.103 372.235C112.859 372.262 116.615 372.283 120.371 372.303C124.293 372.325 128.214 372.353 132.135 372.379C139.565 372.429 146.995 372.474 154.426 372.517C162.883 372.567 171.339 372.622 179.796 372.677C197.198 372.791 214.599 372.898 232 373C233.125 376.75 233.125 376.75 232 379C212.868 379.047 193.736 379.082 174.604 379.104C165.722 379.114 156.839 379.128 147.956 379.151C140.216 379.171 132.476 379.184 124.736 379.188C120.636 379.191 116.536 379.197 112.435 379.211C108.579 379.225 104.723 379.229 100.867 379.226C99.449 379.227 98.0308 379.231 96.6126 379.238C94.6822 379.248 92.7517 379.245 90.8212 379.241C89.739 379.242 88.6568 379.244 87.5418 379.246C85 379 85 379 83 377C82.7412 374.51 82.7412 374.51 82.7344 371.406C82.7318 370.294 82.7292 369.181 82.7266 368.035C82.7382 366.285 82.7382 366.285 82.75 364.5C82.7423 363.333 82.7345 362.167 82.7266 360.965C82.7291 359.852 82.7317 358.74 82.7344 357.594C82.7366 356.57 82.7389 355.545 82.7412 354.49C83 352 83 352 85 350C85.99 350 86.98 350 88 350C88 349.34 88 348.68 88 348Z" fill="#000100"/>
<path d="M129 135C133.218 136.34 135.181 137.969 137.812 141.5C138.417 142.294 139.022 143.088 139.645 143.906C141 146 141 146 141 148C141.639 148.268 142.279 148.536 142.938 148.812C145 150 145 150 146 153C146.66 153 147.32 153 148 153C149.274 154.47 150.544 155.945 151.758 157.465C153.073 159.091 154.482 160.562 156 162C154.372 166.187 151.282 168.92 148.117 171.973C146.939 173.131 145.76 174.289 144.582 175.447C142.723 177.262 140.862 179.075 138.999 180.885C137.198 182.637 135.407 184.398 133.617 186.16C133.055 186.701 132.492 187.242 131.913 187.799C130.551 189.143 129.268 190.566 128 192C128 192.99 128 193.98 128 195C128.66 195.66 129.32 196.32 130 197C129.34 197.66 128.68 198.32 128 199C128 200.32 128 201.64 128 203C160.67 203.495 160.67 203.495 194 204C194.33 205.32 194.66 206.64 195 208C192.162 210.838 190.278 210.26 186.303 210.275C185.271 210.282 185.271 210.282 184.218 210.29C181.938 210.304 179.659 210.303 177.379 210.301C175.797 210.305 174.215 210.309 172.634 210.314C169.315 210.321 165.998 210.321 162.679 210.316C158.424 210.31 154.17 210.327 149.915 210.35C146.647 210.365 143.379 210.366 140.112 210.363C138.543 210.363 136.974 210.368 135.405 210.378C133.212 210.391 131.02 210.384 128.826 210.372C127.578 210.373 126.329 210.374 125.043 210.374C122 210 122 210 120.05 208.664C118.404 206.055 119.392 203.917 120 201C119.67 200.01 119.34 199.02 119 198C120.194 194.625 122.076 192.854 124.812 190.625C127.337 188.495 129.37 186.556 131.5 184C134.626 180.249 138.081 176.924 142 174C142.66 174 143.32 174 144 174C144.248 173.381 144.495 172.762 144.75 172.125C146.206 169.649 147.378 169.049 150 168C146.916 164.891 143.793 161.829 140.645 158.785C139.034 157.211 137.423 155.637 135.812 154.062C134.993 153.277 134.174 152.491 133.33 151.682C126.012 144.484 126.012 144.484 125 139C126.32 137.68 127.64 136.36 129 135Z" fill="#000403"/>
<path d="M101 388C102.98 388 104.96 388 107 388C107 394.27 107 400.54 107 407C142.97 407 178.94 407 216 407C216.495 409.475 216.495 409.475 217 412C216 413 216 413 214.065 413.123C213.21 413.122 212.356 413.121 211.475 413.12C210.009 413.122 210.009 413.122 208.514 413.124C207.433 413.121 206.351 413.117 205.238 413.114C203.54 413.114 203.54 413.114 201.809 413.114C198.048 413.113 194.287 413.105 190.527 413.098C187.928 413.096 185.328 413.094 182.729 413.093C176.574 413.09 170.418 413.082 164.263 413.072C157.257 413.061 150.251 413.055 143.245 413.05C128.83 413.04 114.415 413.022 99.9995 413C98.18 409.361 98.8148 405.068 98.812 401.062C98.7998 400.143 98.7875 399.223 98.7749 398.275C98.773 397.392 98.7711 396.508 98.7691 395.598C98.765 394.788 98.7608 393.979 98.7566 393.145C98.9995 391 98.9995 391 101 388Z" fill="#000201"/>
<path d="M119 244C122.3 244 125.6 244 129 244C129.33 244.66 129.66 245.32 130 246C132.816 246.469 132.816 246.469 136.062 246.625C137.72 246.737 137.72 246.737 139.41 246.852C140.265 246.901 141.119 246.95 142 247C142.495 248.98 142.495 248.98 143 251C147.29 251.66 151.58 252.32 156 253C156.495 255.475 156.495 255.475 157 258C157.516 257.835 158.031 257.67 158.562 257.5C161 257 161 257 164.438 257.062C168.048 256.999 169.732 256.368 173 255C175.556 254.428 178.119 253.939 180.695 253.465C183.145 253.02 183.145 253.02 186 252C187.561 251.933 189.125 251.915 190.688 251.938C191.9 251.951 191.9 251.951 193.137 251.965C194.059 251.982 194.059 251.982 195 252C195.495 252.99 195.495 252.99 196 254C198.061 254.391 198.061 254.391 200.438 254.5C204.779 254.779 204.779 254.779 207 257C209.655 257.565 212.291 257.738 215 258C215 258.66 215 259.32 215 260C215.855 260.182 216.709 260.364 217.59 260.551C218.695 260.802 219.799 261.054 220.938 261.312C222.04 261.556 223.142 261.8 224.277 262.051C225.176 262.364 226.074 262.677 227 263C227.495 264.485 227.495 264.485 228 266C228.908 265.794 229.815 265.588 230.75 265.375C234 265 234 265 235.719 266.008C239.07 267.466 242.21 266.866 245.75 266.5C251.613 265.997 256.418 266.023 262 268C262 268.99 262 269.98 262 271C263.65 271.66 265.3 272.32 267 273C267 273.66 267 274.32 267 275C266.01 275.33 265.02 275.66 264 276C262.667 275 261.333 274 260 273C257.687 272.267 255.354 271.589 253 271C253 270.34 253 269.68 253 269C251.35 269.33 249.7 269.66 248 270C248 269.34 248 268.68 248 268C245.36 268 242.72 268 240 268C239.67 268.66 239.34 269.32 239 270C228.308 269.3 218.17 267.731 209 262C206.229 261.225 206.229 261.225 204 261C204 260.34 204 259.68 204 259C203.141 259.277 203.141 259.277 202.266 259.559C198.554 260.282 195.602 259.021 192 258C191.67 258.99 191.34 259.98 191 261C191 260.34 191 259.68 191 259C189.35 259.33 187.7 259.66 186 260C186 259.34 186 258.68 186 258C181.996 258.417 179.169 258.926 175.438 260.562C169.495 262.875 163.254 262.894 157 262C154.645 260.802 152.817 259.379 150.758 257.73C143.274 253.034 133.54 251.091 125 249C125 249.66 125 250.32 125 251C123.35 251 121.7 251 120 251C119.67 251.66 119.34 252.32 119 253C119 252.01 119 251.02 119 250C114.305 251.716 114.305 251.716 110.375 254.625C108.459 256.541 106.626 256.645 104 257C104.33 255.35 104.66 253.7 105 252C105.969 251.732 106.939 251.464 107.938 251.188C109.453 250.6 109.453 250.6 111 250C111.33 249.01 111.66 248.02 112 247C113.98 247 115.96 247 118 247C118.33 246.01 118.66 245.02 119 244ZM102 257C102.66 257.33 103.32 257.66 104 258C102.515 258.99 102.515 258.99 101 260C101.33 259.01 101.66 258.02 102 257Z" fill="#12A283"/>
<path d="M146 145C154.055 145.488 160.216 153.99 165.312 159.5C167 162 167 162 167.5 164.5C166.83 167.848 165.355 169.576 163 172C162.34 172 161.68 172 161 172C160.773 172.552 160.546 173.103 160.312 173.672C158.613 176.687 156.452 178.812 154 181.25C153.113 182.142 152.226 183.034 151.312 183.953C149 186 149 186 147 186C146.34 187.32 145.68 188.64 145 190C149.29 190.33 153.58 190.66 158 191C158 191.66 158 192.32 158 193C158.66 193 159.32 193 160 193C159.67 194.98 159.34 196.96 159 199C158.34 199 157.68 199 157 199C157 198.01 157 197.02 157 196C149.74 196 142.48 196 135 196C135.33 195.34 135.66 194.68 136 194C136.99 194 137.98 194 139 194C139 193.34 139 192.68 139 192C139.99 191.505 139.99 191.505 141 191C140.756 190.266 140.512 189.533 140.26 188.777C140 186 140 186 141.539 183.78C142.298 183.052 143.057 182.324 143.84 181.574C145.063 180.38 145.063 180.38 146.311 179.162C147.611 177.937 147.611 177.937 148.938 176.688C149.801 175.852 150.664 175.016 151.553 174.154C153.689 172.089 155.838 170.039 158 168C152.522 172.528 147.569 177.396 142.719 182.584C139.648 185.753 137.636 187.75 133 188C134.526 184.367 136.688 182.107 139.5 179.375C140.387 178.504 141.274 177.632 142.188 176.734C144.062 174.911 145.938 173.089 147.812 171.266C148.699 170.394 149.586 169.523 150.5 168.625C151.315 167.834 152.129 167.042 152.969 166.227C154.82 164.197 155.944 162.514 157 160C155.917 158.917 155.917 158.917 154.812 157.812C153.884 156.884 152.956 155.956 152 155C150.639 153.763 150.639 153.763 149.25 152.5C146.881 149.868 146.298 148.472 146 145Z" fill="#33D7C5"/>
<path d="M157 167C157.66 167.33 158.32 167.66 159 168C158.449 168.519 157.899 169.038 157.332 169.573C154.851 171.929 152.395 174.308 149.938 176.688C148.637 177.912 148.637 177.912 147.311 179.162C146.495 179.958 145.68 180.754 144.84 181.574C144.081 182.302 143.321 183.03 142.539 183.78C140.693 185.934 140.693 185.934 141.26 188.777C141.504 189.51 141.748 190.244 142 191C141.01 191.33 140.02 191.66 139 192C139 192.66 139 193.32 139 194C138.01 194.66 137.02 195.32 136 196C135.34 197.32 134.68 198.64 134 200C143.24 200 152.48 200 162 200C162.495 199.01 162.495 199.01 163 198C162.34 198 161.68 198 161 198C161 197.34 161 196.68 161 196C161.66 196 162.32 196 163 196C163 195.01 163 194.02 163 193C163.99 193 164.98 193 166 193C166.268 193.598 166.536 194.196 166.812 194.812C168.033 197.061 169.034 198.377 171 200C173.018 200.499 173.018 200.499 175.23 200.512C176.033 200.547 176.835 200.583 177.662 200.619C178.495 200.642 179.329 200.664 180.188 200.688C181.032 200.722 181.877 200.756 182.748 200.791C184.832 200.873 186.916 200.938 189 201C189.495 200.01 189.495 200.01 190 199C191.65 199.33 193.3 199.66 195 200C195 196.7 195 193.4 195 190C196.32 189.67 197.64 189.34 199 189C200.727 190.125 200.727 190.125 202 192C202.398 194.375 202.398 194.375 202.375 197C202.387 198.299 202.387 198.299 202.398 199.625C201.905 202.568 201.415 203.266 199 205C195.944 205.323 195.944 205.323 192.142 205.249C191.449 205.239 190.756 205.23 190.042 205.221C187.753 205.186 185.465 205.13 183.176 205.074C181.588 205.046 180.001 205.019 178.413 204.994C174.235 204.924 170.058 204.835 165.881 204.742C161.618 204.651 157.355 204.577 153.092 204.502C144.727 204.352 136.364 204.182 128 204C127.375 201.625 127.375 201.625 127 199C127.66 198.34 128.32 197.68 129 197C128.34 196.34 127.68 195.68 127 195C127.101 191.956 127.991 191.008 130.188 188.875C133 187 133 187 135.893 186.141C139.345 184.873 140.977 183.487 143.523 180.867C144.316 180.062 145.109 179.256 145.926 178.426C147.138 177.163 147.138 177.163 148.375 175.875C149.206 175.026 150.038 174.176 150.895 173.301C152.939 171.209 154.974 169.109 157 167Z" fill="#02AD8F"/>
<path d="M221 271C224.3 271.33 227.6 271.66 231 272C231 272.66 231 273.32 231 274C231.99 274.33 232.98 274.66 234 275C234.495 276.485 234.495 276.485 235 278C235.784 278.454 236.568 278.907 237.375 279.375C240.391 281.242 241.227 282.994 243 286C245.05 287.192 245.05 287.192 247 288C247.495 288.99 247.495 288.99 248 290C249.671 289.907 249.671 289.907 251.375 289.812C253.17 289.905 253.17 289.905 255 290C255.66 290.99 256.32 291.98 257 293C256.051 293.619 255.103 294.238 254.125 294.875C251.056 296.82 251.056 296.82 249 299C245.015 299.451 242.79 299.508 239.375 297.312C236.893 294.896 234.419 292.481 232 290C231.237 289.278 230.474 288.556 229.688 287.812C228 286 228 286 228 284C224.195 282.222 222.621 281.775 218.598 283.23C217.409 283.863 216.23 284.516 215.063 285.188C213.888 285.829 212.712 286.468 211.535 287.105C210.957 287.422 210.378 287.738 209.782 288.064C202.29 292 202.29 292 198 292C197.67 293.32 197.34 294.64 197 296C195.808 293.477 194.964 291.628 195.125 288.812C196.313 286.351 197.504 286.064 200 285C201.783 284.51 203.576 284.053 205.375 283.625C210.053 282.403 213.161 280.879 217 278C217.99 277.67 218.98 277.34 220 277C220.33 275.02 220.66 273.04 221 271Z" fill="#000702"/>
<path d="M67.0002 31C67.6602 31 68.3202 31 69.0002 31C67.4183 34.8383 64.9773 37.2667 62.0548 40.1758C61.5661 40.664 61.0774 41.1523 60.5739 41.6553C59.539 42.6872 58.5017 43.7167 57.4621 44.7439C55.8961 46.2917 54.3382 47.8473 52.7814 49.4043C47.8175 54.3493 42.8122 59.1887 37.4303 63.6843C35.1494 65.7826 34.5944 67.9381 34.1877 70.9375C34.1814 74.7857 34.9325 75.9236 37.5353 78.8633C39.6181 80.8017 41.7855 82.6176 43.9845 84.4219C46.7943 86.824 49.0468 88.8627 51.0002 92C50.8829 95.9424 49.1761 98.7249 47.1877 102.062C42.8153 109.851 39.8116 118.074 39.0002 127C37.0202 127 35.0402 127 33.0002 127C33.1425 125.583 33.2892 124.166 33.4377 122.75C33.5189 121.961 33.6001 121.172 33.6837 120.359C33.9765 118.176 34.4208 116.123 35.0002 114C35.6602 114 36.3202 114 37.0002 114C37.1935 113.397 37.3869 112.793 37.5861 112.172C37.8465 111.373 38.1069 110.573 38.3752 109.75C38.6304 108.961 38.8856 108.172 39.1486 107.359C39.9519 105.134 40.8973 103.091 42.0002 101C42.6602 101 43.3202 101 44.0002 101C44.3389 97.8296 44.3389 97.8296 41.8127 95.625C40.4205 94.3256 40.4205 94.3256 39.0002 93C35.7375 89.8169 32.8231 86.5757 30.0002 83C29.4227 82.5669 28.8452 82.1337 28.2502 81.6875C26.1375 78.8355 26.6411 75.4245 27.0002 72C28.1356 68.5935 29.6381 67.5109 32.383 65.3242C35.5715 62.7133 38.3596 59.6771 41.1877 56.6875C43.0002 55 43.0002 55 45.0002 55C45.227 54.4431 45.4539 53.8863 45.6877 53.3125C48.4572 48.4328 53.069 45.0612 57.297 41.4766C60.4063 38.7809 63.26 36.0142 65.6877 32.6875C66.1208 32.1306 66.5539 31.5738 67.0002 31Z" fill="#040903"/>
<path d="M129 425C131.061 427.061 131.997 428.795 133.312 431.375C136.866 437.802 140.763 440.191 147.621 442.387C158.465 445.182 170.173 445.259 180.766 441.559C183.25 440.938 184.608 441.172 187 442C183.357 446.637 178.538 448.463 173 450C168.009 450.581 163.083 450.605 158.062 450.562C156.769 450.586 155.475 450.61 154.143 450.635C144.925 450.621 136.782 449.374 129.77 442.961C125.672 438.576 123.106 434.797 122.875 428.688C122.937 427.357 122.937 427.357 123 426C125.875 425.375 125.875 425.375 129 425Z" fill="#000200"/>
<path d="M142 137C149.227 136.975 156.453 136.957 163.68 136.945C166.14 136.94 168.6 136.933 171.06 136.925C174.589 136.913 178.119 136.907 181.648 136.902C182.754 136.897 183.859 136.892 184.998 136.887C186.019 136.887 187.039 136.887 188.091 136.887C188.993 136.884 189.894 136.882 190.823 136.88C193 137 193 137 195 138C195.555 140.399 195.555 140.399 195.875 143.375C195.996 144.352 196.117 145.329 196.242 146.336C196 149 196 149 194.133 150.852C192 152 192 152 190 152C189.505 148.04 189.505 148.04 189 144C187.267 144.016 187.267 144.016 185.499 144.032C181.204 144.068 176.908 144.091 172.612 144.11C170.755 144.12 168.897 144.134 167.04 144.151C164.366 144.175 161.693 144.187 159.02 144.195C157.779 144.211 157.779 144.211 156.513 144.227C151.361 144.228 147.311 143.912 143.188 140.5C142 139 142 139 142 137Z" fill="#040F0B"/>
<path d="M191 168C193.64 168.33 196.28 168.66 199 169C198.34 171.31 197.68 173.62 197 176C195.35 176 193.7 176 192 176C191.67 177.65 191.34 179.3 191 181C188.018 181.773 185.024 182.412 182 183C181.67 184.32 181.34 185.64 181 187C180.34 187 179.68 187 179 187C178.34 188.32 177.68 189.64 177 191C175.02 190.34 173.04 189.68 171 189C172.32 188.67 173.64 188.34 175 188C174.67 187.01 174.34 186.02 174 185C174.99 185 175.98 185 177 185C175.913 182.881 175.913 182.881 174 181C170.874 180.666 170.874 180.666 168 181C168 183.64 168 186.28 168 189C166.35 189 164.7 189 163 189C162.926 185.145 162.902 181.707 164 178C164 177.34 164 176.68 164 176C165.65 176 167.3 176 169 176C169 175.34 169 174.68 169 174C169.784 174.186 170.568 174.371 171.375 174.562C173.971 175.26 173.971 175.26 176 174C176.66 174.33 177.32 174.66 178 175C178 174.34 178 173.68 178 173C178.66 173 179.32 173 180 173C180 171.68 180 170.36 180 169C182.97 169.33 185.94 169.66 189 170C189.33 170.99 189.66 171.98 190 173C190.33 171.35 190.66 169.7 191 168ZM178 179C179 181 179 181 179 181L178 179Z" fill="#11C6AF"/>
<path d="M201 255C205.875 255.875 205.875 255.875 207 257C208.347 257.231 209.704 257.412 211.062 257.562C212.362 257.707 213.661 257.851 215 258C215 258.66 215 259.32 215 260C215.855 260.182 216.709 260.364 217.59 260.551C219.247 260.928 219.247 260.928 220.938 261.312C222.591 261.678 222.591 261.678 224.277 262.051C225.625 262.521 225.625 262.521 227 263C227.495 264.485 227.495 264.485 228 266C228.908 265.794 229.815 265.588 230.75 265.375C234 265 234 265 235.719 266.008C239.07 267.466 242.21 266.866 245.75 266.5C251.613 265.997 256.418 266.023 262 268C262 268.99 262 269.98 262 271C263.65 271.66 265.3 272.32 267 273C267 273.66 267 274.32 267 275C265.515 275.495 265.515 275.495 264 276C262.667 275 261.333 274 260 273C257.687 272.267 255.354 271.589 253 271C253 270.34 253 269.68 253 269C251.35 269.33 249.7 269.66 248 270C248 269.34 248 268.68 248 268C245.36 268 242.72 268 240 268C239.67 268.66 239.34 269.32 239 270C228.308 269.3 218.17 267.731 209 262C206.229 261.225 206.229 261.225 204 261C204 260.34 204 259.68 204 259C203.428 259.184 202.855 259.369 202.266 259.559C198.554 260.282 195.602 259.021 192 258C191.67 258.99 191.34 259.98 191 261C191 260.34 191 259.68 191 259C189.35 259.33 187.7 259.66 186 260C186 259.34 186 258.68 186 258C180.449 258.744 180.449 258.744 175 260C175 259.34 175 258.68 175 258C183.551 254.96 192.146 255.663 201 257C201 256.34 201 255.68 201 255Z" fill="#0E9D7C"/>
<path d="M163 178C163.66 178 164.32 178 165 178C164.856 178.771 164.711 179.542 164.562 180.336C164.377 181.339 164.191 182.342 164 183.375C163.814 184.373 163.629 185.37 163.438 186.398C162.945 188.889 162.945 188.889 163 191C163.949 190.814 164.897 190.629 165.875 190.438C169 190 169 190 171 191C171 191.66 171 192.32 171 193C169.35 193.66 167.7 194.32 166 195C166 194.34 166 193.68 166 193C165.01 193 164.02 193 163 193C163 193.99 163 194.98 163 196C162.34 196 161.68 196 161 196C161 196.66 161 197.32 161 198C161.66 198 162.32 198 163 198C162.67 198.99 162.34 199.98 162 201C148.14 200.505 148.14 200.505 134 200C134.66 198.68 135.32 197.36 136 196C142.93 196 149.86 196 157 196C157 196.99 157 197.98 157 199C157.66 199 158.32 199 159 199C159.33 197.02 159.66 195.04 160 193C159.34 193 158.68 193 158 193C158 192.01 158 191.02 158 190C157.34 190 156.68 190 156 190C156.875 182.125 156.875 182.125 158 181C159.666 180.959 161.334 180.957 163 181C163 180.01 163 179.02 163 178Z" fill="#05987B"/>
<path d="M134 5C134.087 9.45821 134.14 13.9162 134.188 18.375C134.213 19.646 134.238 20.917 134.264 22.2266C134.278 24.0441 134.278 24.0441 134.293 25.8984C134.317 27.5795 134.317 27.5795 134.341 29.2944C134.228 30.1873 134.116 31.0801 134 32C131 34 131 34 128.313 33.625C127.168 33.3156 127.168 33.3156 126 33C125.854 29.4588 125.766 25.9183 125.688 22.375C125.646 21.376 125.604 20.377 125.561 19.3477C125.422 11.0006 125.422 11.0006 128.332 7.28906C131 5 131 5 134 5Z" fill="#151B12"/>
<path d="M115 282C117.608 282.591 120.21 283.197 122.812 283.812C123.55 283.978 124.288 284.144 125.049 284.314C127.861 284.989 130.471 285.704 133.004 287.121C134.696 290.313 134.263 293.736 134.125 297.25C133.658 307.498 133.658 307.498 137 317C138.114 316.752 138.114 316.752 139.25 316.5C146.378 315.55 153.488 315.783 160.625 316.562C165.004 317.013 168.956 316.793 173.312 316.27C176.505 315.949 179.667 315.818 182.875 315.75C184.48 315.711 184.48 315.711 186.117 315.672C189.324 316.037 190.653 316.846 193 319C189.988 320.004 188.019 320.118 184.874 320.101C183.829 320.097 182.784 320.093 181.708 320.089C176.94 320.041 172.172 319.991 167.404 319.923C164.888 319.891 162.372 319.87 159.856 319.859C156.229 319.844 152.603 319.797 148.977 319.742C147.29 319.743 147.29 319.743 145.57 319.745C137.859 319.577 137.859 319.577 133.782 316.84C131.693 313.511 131.416 311.729 131.512 307.824C131.528 306.667 131.544 305.51 131.561 304.318C131.602 303.12 131.644 301.922 131.688 300.688C131.71 299.47 131.733 298.252 131.756 296.998C131.815 293.997 131.897 290.999 132 288C130.957 288.052 129.914 288.103 128.84 288.156C124.922 287.997 122.951 287.357 119.562 285.5C118.698 285.036 117.833 284.572 116.941 284.094C116.301 283.733 115.66 283.372 115 283C115 282.67 115 282.34 115 282Z" fill="#02734C"/>
<path d="M246 148C246.33 148 246.66 148 247 148C247.168 151.937 247.334 155.875 247.5 159.812C247.548 160.932 247.595 162.052 247.645 163.205C247.69 164.278 247.735 165.351 247.781 166.457C247.823 167.447 247.865 168.437 247.908 169.456C248.286 179.932 244.979 187.888 240 197C240.99 197.495 240.99 197.495 242 198C240.793 198.34 240.793 198.34 239.562 198.688C238.717 199.121 237.871 199.554 237 200C236.854 200.732 236.709 201.464 236.559 202.219C234.402 212.958 224.237 221.273 215.75 227.312C214.842 227.869 213.935 228.426 213 229C212.113 229.598 211.226 230.196 210.312 230.812C209.549 231.204 208.786 231.596 208 232C207.01 231.67 206.02 231.34 205 231C206.351 228.299 207.748 228.122 210.5 226.938C221.294 221.64 227.685 211.854 234 202C234.495 201.228 234.99 200.456 235.5 199.66C243.046 186.997 245.039 174.01 245.562 159.562C245.627 157.893 245.627 157.893 245.693 156.189C245.799 153.46 245.901 150.73 246 148Z" fill="#03B18A"/>
<path d="M221 271C224.3 271.33 227.6 271.66 231 272C231 272.66 231 273.32 231 274C231.99 274.33 232.98 274.66 234 275C233.67 275.99 233.34 276.98 233 278C232.412 277.227 232.412 277.227 231.813 276.438C230.051 274.725 230.051 274.725 227.438 275.062C224.411 276.227 224.298 277.145 223 280C221.685 280.702 220.349 281.365 219 282C218.419 282.625 217.837 283.25 217.238 283.895C214.656 286.324 212.345 287.375 209.063 288.688C207.533 289.312 207.533 289.312 205.973 289.949C203.307 290.892 200.784 291.534 198 292C197.67 293.32 197.34 294.64 197 296C195.808 293.477 194.964 291.628 195.125 288.812C196.313 286.351 197.504 286.064 200 285C201.783 284.51 203.576 284.053 205.375 283.625C210.053 282.403 213.161 280.879 217 278C217.99 277.67 218.98 277.34 220 277C220.33 275.02 220.66 273.04 221 271Z" fill="#001006"/>
<path d="M157 167C157.66 167.33 158.32 167.66 159 168C158.449 168.519 157.899 169.038 157.332 169.573C154.851 171.929 152.395 174.308 149.938 176.688C148.637 177.912 148.637 177.912 147.311 179.162C146.495 179.958 145.68 180.754 144.84 181.574C144.081 182.302 143.321 183.03 142.539 183.78C140.693 185.934 140.693 185.934 141.26 188.777C141.504 189.51 141.748 190.244 142 191C141.01 191.33 140.02 191.66 139 192C139 192.66 139 193.32 139 194C138.01 194.66 137.02 195.32 136 196C135.34 197.32 134.68 198.64 134 200C141.26 200 148.52 200 156 200C156 200.33 156 200.66 156 201C155.193 201.025 154.385 201.05 153.553 201.076C149.91 201.192 146.268 201.314 142.625 201.438C141.354 201.477 140.083 201.516 138.773 201.557C137.562 201.599 136.35 201.64 135.102 201.684C133.421 201.739 133.421 201.739 131.706 201.795C129.033 201.826 129.033 201.826 127 203C127.248 201.824 127.248 201.824 127.5 200.625C128.127 197.332 127.855 195.204 127 192C132.303 187.202 132.303 187.202 135.836 186.178C139.312 184.884 140.957 183.508 143.523 180.867C144.316 180.062 145.109 179.256 145.926 178.426C147.138 177.163 147.138 177.163 148.375 175.875C149.206 175.026 150.038 174.176 150.895 173.301C152.939 171.209 154.974 169.109 157 167Z" fill="#059174"/>
<path d="M71 29C71.495 29.99 71.495 29.99 72 31C72.66 31.33 73.32 31.66 74 32C73.1623 32.822 72.3245 33.644 71.4614 34.491C68.349 37.549 65.2465 40.6171 62.147 43.6882C60.8053 45.0149 59.4609 46.3388 58.1138 47.6599C56.1755 49.5617 54.2471 51.4732 52.3203 53.3867C51.7182 53.9734 51.116 54.56 50.4956 55.1645C47.3797 58.2792 45.363 60.7167 44 65C42.3438 67.2383 42.3438 67.2383 40.5 69.3125C39.8916 70.0099 39.2831 70.7073 38.6562 71.4258C37 73 37 73 35 73C35.0875 71.5614 35.1957 70.124 35.3125 68.6875C35.3705 67.887 35.4285 67.0865 35.4883 66.2617C36.0884 63.6093 36.8571 62.635 39 61C39.66 61 40.32 61 41 61C41.33 60.01 41.66 59.02 42 58C43.5203 56.4988 43.5203 56.4988 45.4805 54.8867C50.3375 50.7643 54.8209 46.3264 59.3125 41.8125C60.1098 41.0191 60.9071 40.2257 61.7285 39.4082C62.4949 38.6406 63.2612 37.8729 64.0508 37.082C64.7383 36.3934 65.4257 35.7048 66.134 34.9954C67.9189 33.0867 69.4768 31.1209 71 29Z" fill="#85E9C9"/>
<path d="M204 82C204.571 82.5723 205.142 83.1447 205.73 83.7344C208.369 86.3685 211.193 88.2116 214.312 90.25C219.634 93.821 224.421 97.5732 228 103C228 103.66 228 104.32 228 105C228.66 105 229.32 105 230 105C231.398 106.742 232.72 108.545 234 110.375C237.247 115.741 237.247 115.741 242.438 118.438C245.42 119.092 245.896 119.896 248 122C249.535 122.941 251.1 123.836 252.688 124.688C253.496 125.124 254.304 125.561 255.137 126.012C255.752 126.338 256.366 126.664 257 127C255 128 255 128 252.793 127.328C248.331 125.482 244.037 123.691 240 121C240.66 122.98 241.32 124.96 242 127C241.34 127 240.68 127 240 127C239.636 126.299 239.273 125.598 238.898 124.875C235.694 118.827 232.348 113.285 228 108C227.416 107.27 226.832 106.541 226.23 105.789C221.754 100.447 216.905 96.5161 211.125 92.6289C210.073 91.8226 210.073 91.8226 209 91C209 90.34 209 89.68 209 89C207.608 88.5669 207.608 88.5669 206.188 88.125C203 87 203 87 200 85C200 84.34 200 83.68 200 83C202 82 202 82 204 82Z" fill="#87E9C7"/>
<path d="M163 193C163.99 193 164.98 193 166 193C166.268 193.598 166.536 194.196 166.812 194.812C168.051 197.094 168.97 198.39 171 200C173.509 200.504 173.509 200.504 176.324 200.512C177.866 200.565 177.866 200.565 179.439 200.619C181.047 200.653 181.047 200.653 182.688 200.688C183.771 200.722 184.854 200.756 185.971 200.791C188.647 200.874 191.323 200.943 194 201C192 203 192 203 189.33 203.241C188.197 203.236 187.065 203.232 185.898 203.227C184.617 203.227 183.336 203.227 182.016 203.227C180.612 203.216 179.208 203.206 177.805 203.195C176.373 203.192 174.941 203.189 173.509 203.187C169.737 203.179 165.966 203.159 162.195 203.137C158.347 203.117 154.5 203.108 150.652 203.098C143.101 203.076 135.551 203.042 128 203C128.33 202.34 128.66 201.68 129 201C139.89 200.67 150.78 200.34 162 200C162.33 199.34 162.66 198.68 163 198C162.34 198 161.68 198 161 198C161 197.34 161 196.68 161 196C161.66 196 162.32 196 163 196C163 195.01 163 194.02 163 193Z" fill="#05D1B5"/>
<path d="M51 225C51.66 225.99 52.32 226.98 53 228C52.4109 228.592 51.8218 229.183 51.2148 229.793C50.4633 230.583 49.7118 231.373 48.9375 232.188C48.1834 232.965 47.4293 233.742 46.6523 234.543C44.6939 236.897 44.6939 236.897 45.2539 239.801C45.5001 240.527 45.7463 241.252 46 242C44.3333 242 42.6667 242 41 242C37.0959 245.832 37.0959 245.832 35.6875 250.875C35.8422 251.927 35.8422 251.927 36 253C36.8895 253.383 36.8895 253.383 37.7969 253.773C40.2267 255.126 41.4924 256.483 43.25 258.625C46.9388 262.994 50.9113 267.007 55 271C54.67 271.99 54.34 272.98 54 274C51.0584 271.087 48.1224 268.169 45.1875 265.25C44.3541 264.425 43.5207 263.6 42.6621 262.75C41.8597 261.951 41.0572 261.152 40.2305 260.328C39.4921 259.595 38.7537 258.862 37.9929 258.106C33.248 253.091 33.248 253.091 32.375 249.25C33.3402 244.231 36.5228 241.597 40 238C41.6104 236.235 43.2145 234.464 44.8125 232.688C45.5614 231.866 46.3104 231.045 47.082 230.199C49.1252 227.952 49.1252 227.952 51 225Z" fill="#019970"/>
<path d="M293.317 193.887C294.317 193.892 295.317 193.897 296.348 193.903C297.427 193.906 298.507 193.909 299.619 193.912C301.324 193.925 301.324 193.925 303.062 193.938C304.773 193.945 304.773 193.945 306.518 193.951C309.345 193.963 312.173 193.98 315 194C313.813 197.561 312.36 198.457 309.117 200.198C305.313 201.64 301.575 201.418 297.562 201.25C296.736 201.232 295.909 201.214 295.057 201.196C293.037 201.149 291.018 201.077 289 201C290.036 194.048 290.036 194.048 293.317 193.887Z" fill="#001208"/>
<path d="M141 185C142.675 185.286 144.344 185.618 146 186C145.67 187.32 145.34 188.64 145 190C149.29 190.33 153.58 190.66 158 191C158 191.66 158 192.32 158 193C158.66 193 159.32 193 160 193C159.67 194.98 159.34 196.96 159 199C158.34 199 157.68 199 157 199C157 198.01 157 197.02 157 196C149.74 196 142.48 196 135 196C135.33 195.34 135.66 194.68 136 194C136.99 194 137.98 194 139 194C139 193.34 139 192.68 139 192C139.66 191.67 140.32 191.34 141 191C140.722 189.793 140.722 189.793 140.438 188.562C140.293 187.717 140.149 186.871 140 186C140.33 185.67 140.66 185.34 141 185Z" fill="#0CC5AC"/>
<path d="M169 174C174.298 174.589 174.298 174.589 176.813 176.062C178.707 179.153 179.028 182.444 179 186C178.063 189 178.063 189 177 191C175.02 190.34 173.04 189.68 171 189C172.32 188.67 173.64 188.34 175 188C174.67 187.01 174.34 186.02 174 185C174.99 185 175.98 185 177 185C175.913 182.881 175.913 182.881 174 181C170.874 180.666 170.874 180.666 168 181C168 183.64 168 186.28 168 189C166.35 189 164.7 189 163 189C162.926 185.145 162.902 181.707 164 178C164 177.34 164 176.68 164 176C165.65 176 167.3 176 169 176C169 175.34 169 174.68 169 174Z" fill="#0ED7C1"/>
<path d="M8.0002 166C8.9902 166.33 9.9802 166.66 11.0002 167C10.6702 168.65 10.3402 170.3 10.0002 172C10.6602 172.33 11.3202 172.66 12.0002 173C11.6702 173.33 11.3402 173.66 11.0002 174C10.7649 176.35 10.5863 178.706 10.4377 181.062C10.3539 182.353 10.2701 183.643 10.1838 184.973C10.1232 185.972 10.0626 186.971 10.0002 188C10.6602 188 11.3202 188 12.0002 188C12.4266 188.484 12.8531 188.969 13.2924 189.468C15.6346 191.569 17.2107 191.426 20.3244 191.512C21.8665 191.565 21.8665 191.565 23.4397 191.619C25.0474 191.653 25.0474 191.653 26.6877 191.688C27.7712 191.722 28.8546 191.756 29.9709 191.791C32.6472 191.874 35.3232 191.943 38.0002 192C38.0002 192.66 38.0002 193.32 38.0002 194C33.9379 194.116 29.8761 194.187 25.8127 194.25C24.087 194.3 24.087 194.3 22.3264 194.352C21.2146 194.364 20.1027 194.377 18.9572 194.391C17.9361 194.412 16.9149 194.433 15.8627 194.454C12.1546 193.866 10.5429 192.743 8.0002 190C7.43257 187.343 7.43257 187.343 7.51192 184.359C7.52803 183.289 7.54415 182.22 7.56075 181.117C7.60264 180.006 7.64454 178.895 7.6877 177.75C7.71026 176.623 7.73282 175.497 7.75606 174.336C7.81496 171.556 7.89716 168.779 8.0002 166Z" fill="#05D5BE"/>
<path d="M246 26C246.66 26.33 247.32 26.66 248 27C244.144 34.2425 239.709 41.0912 233 46C229.836 46.8359 229.836 46.8359 227 47C225.125 45.5625 225.125 45.5625 224 44C226 43 226 43 227.812 42.75C232.176 41.2541 234.794 37.2745 237.562 33.75C240.067 30.9249 240.579 30.7077 244 30C245.284 28.0162 245.284 28.0162 246 26Z" fill="#9EEFCD"/>
<path d="M154 75.0001C150.59 78.0262 147.402 78.8084 143 79.8126C131.615 82.6474 122.616 87.9138 113.496 95.1446C111 97.0001 111 97.0001 108 98.0001C111.155 89.4817 122.349 84.8224 130 81.0001C138.152 77.459 145.084 74.8287 154 75.0001Z" fill="#91F1D0"/>
<path d="M156 170C156.33 170.99 156.66 171.98 157 173C157.66 173 158.32 173 159 173C158.47 177.057 156.424 178.948 153.562 181.75C152.759 182.549 151.956 183.348 151.129 184.172C149 186 149 186 147 186C146.67 186.66 146.34 187.32 146 188C145.34 187.34 144.68 186.68 144 186C143.34 186 142.68 186 142 186C143.659 181.675 146.871 178.906 150.125 175.75C150.688 175.196 151.252 174.641 151.832 174.07C153.217 172.709 154.608 171.354 156 170Z" fill="#11D4C3"/>
<path d="M16.7658 124.707C17.6553 124.717 18.5447 124.727 19.4611 124.737C20.3815 124.762 21.3019 124.787 22.2502 124.813C23.1861 124.826 24.1219 124.84 25.0861 124.854C27.3914 124.889 29.6955 124.938 32.0002 125C31.6702 125.66 31.3402 126.32 31.0002 127C29.724 126.977 28.4479 126.954 27.133 126.93C25.4637 126.911 23.7945 126.893 22.1252 126.875C21.2834 126.859 20.4417 126.842 19.5744 126.825C18.3659 126.815 18.3659 126.815 17.133 126.805C16.3894 126.795 15.6458 126.784 14.8796 126.773C12.7553 126.834 12.7553 126.834 11.0002 129C10.8373 131.547 10.7927 133.983 10.84 136.528C10.8452 137.272 10.8504 138.017 10.8558 138.784C10.8736 141.169 10.9048 143.553 10.9377 145.938C10.9653 148.319 10.99 150.7 11.0089 153.081C11.0211 154.563 11.0387 156.046 11.0622 157.528C11.0924 160.644 10.9943 163.018 10.0002 166C9.3402 166 8.6802 166 8.0002 166C7.90137 160.644 7.82875 155.287 7.78047 149.93C7.76035 148.107 7.73304 146.284 7.69844 144.462C7.64995 141.843 7.62724 139.225 7.60957 136.606C7.58893 135.79 7.56828 134.974 7.54701 134.134C7.54479 128.533 7.54479 128.533 9.72676 125.981C12.2767 124.881 13.9954 124.654 16.7658 124.707Z" fill="#5AE8D0"/>
<path d="M170.875 179.75C174 180 174 180 175.875 181.375C177 183 177 183 177 185C176.01 185 175.02 185 174 185C174 185.66 174 186.32 174 187C174.66 187.33 175.32 187.66 176 188C174.68 188.33 173.36 188.66 172 189C172.99 190.485 172.99 190.485 174 192C173.691 195.301 172.463 196.859 170 199C169.34 197.35 168.68 195.7 168 194C168.99 193.67 169.98 193.34 171 193C171 192.34 171 191.68 171 191C168.69 190.67 166.38 190.34 164 190C165.32 189.67 166.64 189.34 168 189C167.814 187.701 167.629 186.401 167.438 185.062C167.121 182.848 167.121 182.848 167 181C168 180 168 180 170.875 179.75ZM172 181C172 182.65 172 184.3 172 186C172.33 186 172.66 186 173 186C173 184.35 173 182.7 173 181C172.67 181 172.34 181 172 181Z" fill="#00C9B0"/>
<path d="M201 255C205.838 255.415 207.856 257.42 211 261C211.495 261.99 211.495 261.99 212 263C209.36 262.34 206.72 261.68 204 261C204 260.34 204 259.68 204 259C203.428 259.184 202.855 259.369 202.266 259.559C198.554 260.282 195.602 259.021 192 258C191.67 258.99 191.34 259.98 191 261C191 260.34 191 259.68 191 259C189.35 259.33 187.7 259.66 186 260C186 259.34 186 258.68 186 258C180.449 258.744 180.449 258.744 175 260C175 259.34 175 258.68 175 258C183.551 254.96 192.146 255.663 201 257C201 256.34 201 255.68 201 255Z" fill="#0B9F7F"/>
<path d="M246 148C246.33 148 246.66 148 247 148C247.168 151.937 247.334 155.875 247.5 159.812C247.548 160.932 247.596 162.052 247.645 163.205C247.69 164.278 247.735 165.351 247.782 166.457C247.844 167.942 247.844 167.942 247.908 169.456C248.287 179.932 244.979 187.888 240 197C240.66 197.33 241.32 197.66 242 198C240.68 198.66 239.36 199.32 238 200C237.287 193.223 240.352 187.652 243.071 181.629C245.554 174.605 245.296 166.932 245.563 159.562C245.606 158.449 245.649 157.336 245.694 156.189C245.799 153.46 245.901 150.73 246 148Z" fill="#0FBA95"/>
<path d="M268 170C269.32 170 270.64 170 272 170C272 171.32 272 172.64 272 174C275.96 174 279.92 174 284 174C283.67 174.66 283.34 175.32 283 176C281.25 176.379 281.25 176.379 279 176.562C278.19 176.633 277.381 176.704 276.547 176.777C275.706 176.851 274.866 176.924 274 177C272.416 177.207 270.833 177.415 269.25 177.625C265.91 178.008 263.29 177.752 260 177C257.768 177.369 257.768 177.369 256 178C256 177.01 256 176.02 256 175C256.66 175 257.32 175 258 175C259.346 174.579 260.678 174.116 262 173.625C262.701 173.37 263.402 173.115 264.125 172.852C266.187 172.048 266.187 172.048 268 170Z" fill="#23D7C4"/>
<path d="M163 178C163.66 178 164.32 178 165 178C164.856 178.771 164.711 179.542 164.562 180.336C164.377 181.339 164.191 182.342 164 183.375C163.814 184.373 163.629 185.37 163.438 186.398C162.945 188.889 162.945 188.889 163 191C163.949 190.814 164.897 190.629 165.875 190.438C169 190 169 190 171 191C171 191.66 171 192.32 171 193C169.35 193.66 167.7 194.32 166 195C165.67 194.34 165.34 193.68 165 193C161.971 192.342 161.971 192.342 159 192C159 191.34 159 190.68 159 190C158.01 190 157.02 190 156 190C156.875 182.125 156.875 182.125 158 181C159.666 180.959 161.334 180.957 163 181C163 180.01 163 179.02 163 178Z" fill="#000C09"/>
<path d="M48 56C46.675 60.8535 44.7146 64.0238 41.5 67.875C40.7059 68.8418 39.9119 69.8086 39.0938 70.8047C38.4028 71.5291 37.7119 72.2536 37 73C36.34 73 35.68 73 35 73C35.0875 71.5614 35.1957 70.124 35.3125 68.6875C35.3705 67.887 35.4285 67.0865 35.4883 66.2617C36.0884 63.6093 36.8571 62.635 39 61C39.66 61 40.32 61 41 61C41.33 60.01 41.66 59.02 42 58C45 56 45 56 48 56Z" fill="#87E1BC"/>
<path d="M182.312 315.75C183.484 315.724 184.656 315.698 185.863 315.672C189.236 316.025 190.563 316.713 193 319C189.937 320.021 187.993 320.09 184.794 320.022C183.733 320.002 182.672 319.982 181.579 319.961C179.864 319.92 179.864 319.92 178.113 319.879C176.941 319.855 175.769 319.832 174.561 319.807C170.812 319.731 167.062 319.647 163.312 319.562C160.773 319.509 158.233 319.457 155.693 319.404C149.462 319.275 143.231 319.14 137 319C137 318.67 137 318.34 137 318C137.831 317.975 138.663 317.95 139.519 317.924C142.645 317.828 145.77 317.729 148.896 317.628C150.897 317.564 152.899 317.504 154.9 317.443C160.995 317.244 167.015 316.976 173.066 316.22C176.148 315.869 179.213 315.791 182.312 315.75Z" fill="#005630"/>
<path d="M148 168C148.66 168 149.32 168 150 168C148.471 171.634 146.303 173.915 143.5 176.66C142.613 177.536 141.726 178.412 140.812 179.314C139.884 180.221 138.956 181.128 138 182.062C136.164 183.864 134.331 185.667 132.5 187.473C131.685 188.269 130.871 189.066 130.031 189.887C127.855 192.027 127.855 192.027 126 195C125.562 192.938 125.562 192.938 126 190C128.092 187.406 130.535 185.234 133 183C133.887 182.113 134.774 181.226 135.688 180.312C136.451 179.549 137.214 178.786 138 178C139.083 176.855 139.083 176.855 140.188 175.688C142 174 142 174 144 174C144.289 173.381 144.577 172.762 144.875 172.125C146 170 146 170 148 168Z" fill="#032617"/>
<path d="M195 252C195.33 252.66 195.66 253.32 196 254C198.527 254.656 198.527 254.656 201 255C201 255.66 201 256.32 201 257C193.41 257 185.82 257 178 257C178 256.34 178 255.68 178 255C183.939 252.409 188.541 251.597 195 252Z" fill="#14AA8B"/>
<path d="M67 31C67.66 31 68.32 31 69 31C67.4048 34.9001 64.8778 37.3658 61.9141 40.3164C61.1668 41.063 61.1668 41.063 60.4044 41.8247C59.3527 42.8734 58.2986 43.9196 57.2422 44.9636C55.6322 46.5553 54.0304 48.1549 52.4297 49.7559C43.8946 58.25 43.8946 58.25 40 61C40.25 59.125 40.25 59.125 41 57C42.3247 56.3163 43.6586 55.6504 45 55C45.6849 53.6759 46.3487 52.3409 47 51C50.1943 47.5319 53.7082 44.5192 57.2969 41.4766C60.4062 38.7809 63.2599 36.0142 65.6875 32.6875C66.3372 31.8522 66.3372 31.8522 67 31Z" fill="#182B10"/>
<path d="M33 246C33.33 246 33.66 246 34 246C34 247.65 34 249.3 34 251C34.66 251 35.32 251 36 251C36 251.66 36 252.32 36 253C36.593 253.255 37.1859 253.51 37.7969 253.773C40.2267 255.126 41.4924 256.483 43.25 258.625C46.9388 262.994 50.9113 267.007 55 271C54.67 271.99 54.34 272.98 54 274C51.0584 271.087 48.1224 268.169 45.1875 265.25C43.9374 264.013 43.9374 264.013 42.6621 262.75C41.8597 261.951 41.0572 261.152 40.2305 260.328C39.4921 259.595 38.7537 258.862 37.9929 258.106C33.0509 252.883 33.0509 252.883 32.8125 248.75C32.8744 247.842 32.9363 246.935 33 246Z" fill="#018059"/>
<path d="M233 114C235.423 114.418 236.709 114.696 238.438 116.5C239.953 118.223 239.953 118.223 242.5 118.5C245.46 119.092 245.916 119.916 248 122C249.535 122.941 251.1 123.836 252.688 124.688C253.496 125.124 254.304 125.561 255.137 126.012C255.752 126.338 256.366 126.664 257 127C255 128 255 128 252.793 127.328C248.331 125.482 244.037 123.691 240 121C240.66 122.98 241.32 124.96 242 127C241.34 127 240.68 127 240 127C239.02 125.209 238.041 123.417 237.062 121.625C236.245 120.128 236.245 120.128 235.41 118.602C234.585 117.079 233.774 115.549 233 114Z" fill="#48DFC2"/>
<path d="M221 271C224.3 271.33 227.6 271.66 231 272C231 272.66 231 273.32 231 274C231.99 274.33 232.98 274.66 234 275C233.67 275.99 233.34 276.98 233 278C232.01 277.01 231.02 276.02 230 275C225.002 276.894 220.368 279.369 215.645 281.855C214.772 282.233 213.899 282.611 213 283C212.34 282.67 211.68 282.34 211 282C216.625 278.125 216.625 278.125 220 277C220.33 275.02 220.66 273.04 221 271Z" fill="#098663"/>
<path d="M38 194C38.99 194.33 39.98 194.66 41 195C42.142 197.691 43.1046 200.29 44 203.062C44.4992 204.554 44.9992 206.045 45.5 207.535C45.7423 208.274 45.9847 209.013 46.2344 209.774C47.0022 212.006 47.868 214.182 48.75 216.371C50 220 50 220 49 223C45.362 217.35 42.9145 211.433 40.6875 205.125C40.4211 204.375 40.1548 203.626 39.8804 202.854C38.8251 199.791 38 197.262 38 194Z" fill="#04BD99"/>
<path d="M136 1C136.99 1.495 136.99 1.495 138 2C137.01 2.495 137.01 2.495 136 3C136 2.34 136 1.68 136 1ZM134 3C134.66 3.33 135.32 3.66 136 4C136.174 8.56202 136.281 13.1232 136.375 17.6875C136.45 19.6279 136.45 19.6279 136.527 21.6074C136.672 30.9255 136.672 30.9255 134.743 34.0103C132.182 36.2553 130.402 37 127 37C127 36.34 127 35.68 127 35C126.01 34.67 125.02 34.34 124 34C126.97 33.34 129.94 32.68 133 32C132.995 31.157 132.99 30.3141 132.984 29.4456C132.967 26.3277 132.955 23.2099 132.945 20.092C132.94 18.7408 132.933 17.3896 132.925 16.0383C132.912 14.0998 132.907 12.1612 132.902 10.2227C132.894 8.47094 132.894 8.47094 132.886 6.68384C133 4 133 4 134 3Z" fill="#D2FEF9"/>
<path d="M127 249C126.34 249 125.68 249 125 249C125 249.66 125 250.32 125 251C123.35 251 121.7 251 120 251C119.67 251.66 119.34 252.32 119 253C119 252.01 119 251.02 119 250C114.305 251.716 114.305 251.716 110.375 254.625C108.459 256.541 106.626 256.645 104 257C104.33 255.35 104.66 253.7 105 252C112.096 249.333 119.482 246.77 127 249ZM102 257C102.66 257.33 103.32 257.66 104 258C102.515 258.99 102.515 258.99 101 260C101.33 259.01 101.66 258.02 102 257Z" fill="#0C9F7F"/>
<path d="M136 196C142.6 196 149.2 196 156 196C156 196.99 156 197.98 156 199C149.07 199 142.14 199 135 199C135.33 198.01 135.66 197.02 136 196Z" fill="#02221A"/>
<path d="M34.9995 65C35.9807 68.0526 35.9807 69.9474 34.9995 73C35.5629 73.2282 36.1262 73.4563 36.7066 73.6914C39.6269 75.358 41.4569 77.4272 43.687 79.9375C44.4747 80.8128 45.2623 81.688 46.0738 82.5898C47.9995 85 47.9995 85 48.9995 88C43.0487 85.4071 38.1434 80.9208 33.9995 76C32.8424 72.0044 33.1455 68.7081 34.9995 65Z" fill="#6ED0A8"/>
<path d="M145 174C145.33 174.66 145.66 175.32 146 176C146.66 176.33 147.32 176.66 148 177C146.45 178.658 144.885 180.301 143.312 181.938C142.442 182.854 141.572 183.771 140.676 184.715C137.946 187.046 136.518 187.702 133 188C134.587 184.097 137.134 181.665 140.125 178.75C141.035 177.858 141.945 176.966 142.883 176.047C143.581 175.371 144.28 174.696 145 174Z" fill="#15D9C4"/>
<path d="M51 90C51.99 90.66 52.98 91.32 54 92C53.6252 96.9969 51.9073 99.9789 49.2109 104.031C47.6551 106.561 46.7848 109.146 46 112C45.34 112 44.68 112 44 112C44.9586 105.618 46.2342 101.345 50 96C50.7907 92.7696 50.7907 92.7696 51 90Z" fill="#6BD7B3"/>
<path d="M133 306C133.33 306 133.66 306 134 306C134.123 307.072 134.247 308.145 134.375 309.25C134.896 312.379 135.4 314.335 137 317C137.742 316.835 138.485 316.67 139.25 316.5C146.832 315.489 154.475 315.632 162 317C162 317.33 162 317.66 162 318C157.729 318.087 153.458 318.14 149.187 318.188C147.365 318.225 147.365 318.225 145.505 318.264C143.76 318.278 143.76 318.278 141.98 318.293C140.907 318.309 139.833 318.324 138.727 318.341C136 318 136 318 134.144 316.623C132.597 314.429 132.697 312.968 132.812 310.312C132.839 309.504 132.866 308.696 132.894 307.863C132.929 307.248 132.964 306.634 133 306Z" fill="#008055"/>
<path d="M55 274C57.9709 274.318 58.8719 274.845 60.8125 277.188C61.5344 278.116 62.2563 279.044 63 280C64.8296 281.612 66.7017 283.149 68.6094 284.668C69.0683 285.108 69.5272 285.547 70 286C70 286.66 70 287.32 70 288C70.66 288 71.32 288 72 288C72.33 288.66 72.66 289.32 73 290C75.0951 290.391 75.0951 290.391 77.5 290.5C79.9688 290.656 79.9688 290.656 82 291C82.33 291.66 82.66 292.32 83 293C82.01 293.33 81.02 293.66 80 294C80 293.34 80 292.68 80 292C78.8656 292.174 77.7313 292.348 76.5625 292.527C72.3622 292.526 70.5261 291.154 67.5 288.316C65.9791 286.752 64.4795 285.166 63 283.562C62.2253 282.76 61.4505 281.958 60.6523 281.131C55 275.224 55 275.224 55 274Z" fill="#027149"/>
<path d="M174 175C175.938 176 175.938 176 178 178C179.144 183.065 179.501 186.292 177 191C175.02 190.34 173.04 189.68 171 189C172.32 188.67 173.64 188.34 175 188C174.67 187.01 174.34 186.02 174 185C174.99 185 175.98 185 177 185C175.294 182.216 174.524 181.146 171.312 180.25C170.549 180.167 169.786 180.085 169 180C169 179.67 169 179.34 169 179C170.98 179 172.96 179 175 179C174.67 177.68 174.34 176.36 174 175Z" fill="#09CAB1"/>
<path d="M8 166C8.99 166.33 9.98 166.66 11 167C10.67 168.65 10.34 170.3 10 172C10.66 172.33 11.32 172.66 12 173C11.67 173.33 11.34 173.66 11 174C10.7647 176.35 10.5861 178.706 10.4375 181.062C10.3537 182.353 10.2699 183.643 10.1836 184.973C10.123 185.972 10.0624 186.971 10 188C10.66 188 11.32 188 12 188C12 188.66 12 189.32 12 190C10.68 189.67 9.36 189.34 8 189C8 181.41 8 173.82 8 166Z" fill="#17E1C9"/>
<path d="M177 75C192.207 76.2069 192.207 76.2069 197 81C190.345 83.2182 183.003 78.8625 177 76C177 75.67 177 75.34 177 75Z" fill="#93E3BF"/>
<path d="M160 166C159.67 167.32 159.34 168.64 159 170C158.34 169.67 157.68 169.34 157 169C153.531 171.701 153.531 171.701 150.375 174.75C149 176 149 176 146 176C146.473 171.742 148.886 169.743 152 167C154.928 166.024 156.956 165.918 160 166Z" fill="#26D9C4"/>
<path d="M191 168C193.64 168.33 196.28 168.66 199 169C198.34 171.31 197.68 173.62 197 176C195.35 176 193.7 176 192 176C189.875 171.375 189.875 171.375 191 168Z" fill="#21D5C5"/>
<path d="M127 86C125.549 89.8252 123.618 91.1909 120 93C119.34 93 118.68 93 118 93C118 93.66 118 94.32 118 95C114.04 96.98 114.04 96.98 110 99C112.19 94.6202 114.572 92.866 118.5 90.25C119.094 89.8388 119.689 89.4276 120.301 89.0039C124.722 86 124.722 86 127 86Z" fill="#162A14"/>
<path d="M175 174C177.438 174.812 177.438 174.812 180 176C180.33 176.99 180.66 177.98 181 179C181.99 179 182.98 179 184 179C184 180.32 184 181.64 184 183C183.34 183 182.68 183 182 183C181.67 184.32 181.34 185.64 181 187C180.34 187 179.68 187 179 187C178.897 185.742 178.794 184.484 178.688 183.188C178.304 179.86 178.304 179.86 176.438 177.125C175.963 176.754 175.489 176.382 175 176C175 175.34 175 174.68 175 174Z" fill="#053428"/>
<path d="M163 193C163.99 193 164.98 193 166 193C166.268 193.598 166.536 194.196 166.812 194.812C167.986 196.975 169.236 198.316 171 200C171 200.33 171 200.66 171 201C168.03 201 165.06 201 162 201C162.33 200.01 162.66 199.02 163 198C162.34 198 161.68 198 161 198C161 197.34 161 196.68 161 196C161.66 196 162.32 196 163 196C163 195.01 163 194.02 163 193Z" fill="#0AC0A9"/>
<path d="M193 256C193.66 256.66 194.32 257.32 195 258C194.01 258 193.02 258 192 258C191.67 258.99 191.34 259.98 191 261C191 260.34 191 259.68 191 259C189.35 259.33 187.7 259.66 186 260C186 259.34 186 258.68 186 258C180.449 258.743 180.449 258.743 175 260C175 259.34 175 258.68 175 258C180.921 255.895 186.728 255.292 193 256Z" fill="#089274"/>
<path d="M180 169C182.97 169.33 185.94 169.66 189 170C189 172.31 189 174.62 189 177C188.01 177 187.02 177 186 177C186 176.01 186 175.02 186 174C183.03 173.505 183.03 173.505 180 173C180 171.68 180 170.36 180 169Z" fill="#19D6C1"/>
<path d="M122 85C122.99 85.33 123.98 85.66 125 86C124.282 86.5723 123.564 87.1447 122.824 87.7344C121.006 89.1929 119.196 90.661 117.395 92.1406C116.116 93.1848 116.116 93.1848 114.812 94.25C113.953 94.9564 113.093 95.6628 112.207 96.3906C110 98 110 98 108 98C110.205 92.0465 116.706 88.0585 122 85Z" fill="#83EED2"/>
<path d="M100.562 273.125C103.113 274.04 104.292 274.933 106 277C104 278 104 278 101.625 277.312C100.326 277.158 100.326 277.158 99 277C96.7914 278.875 96.7914 278.875 95 281C94.34 281 93.68 281 93 281C93.3277 277.968 93.6413 276.384 95.75 274.125C98 273 98 273 100.562 273.125Z" fill="#015133"/>
<path d="M222 218C222 221 222 221 219.75 223.5C216.101 226.818 212.404 229.741 208 232C207.01 231.67 206.02 231.34 205 231C206.368 228.264 207.92 227.991 210.688 226.75C215.469 224.452 218.503 221.957 222 218Z" fill="#09AF8A"/>
<path d="M211 284C208.411 286.589 206.973 286.374 203.375 286.625C202.372 286.7 201.369 286.775 200.336 286.852C199.18 286.925 199.18 286.925 198 287C198 289.97 198 292.94 198 296C196.034 293.051 195.261 291.48 195 288C197.227 285.011 199.415 284.412 203 283.75C204.299 283.495 204.299 283.495 205.625 283.234C208 283 208 283 211 284Z" fill="#026340"/>
<path d="M204 82C205.333 83.3333 206.667 84.6667 208 86C209.976 87.3682 211.972 88.7095 214 90C213.67 90.66 213.34 91.32 213 92C211.68 91.67 210.36 91.34 209 91C209 90.34 209 89.68 209 89C207.608 88.5669 207.608 88.5669 206.188 88.125C203 87 203 87 200 85C200 84.34 200 83.68 200 83C202 82 202 82 204 82Z" fill="#92EDD0"/>
<path d="M40.0005 238C40.6605 238.99 41.3205 239.98 42.0005 241C41.5906 241.471 41.1806 241.941 40.7583 242.426C40.2195 243.048 39.6806 243.671 39.1255 244.312C38.5918 244.927 38.0581 245.542 37.5083 246.176C35.8364 248.135 35.8364 248.135 34.0005 251C33.2774 244.975 33.2774 244.975 35.3364 242.199C36.8279 240.732 38.4098 239.359 40.0005 238Z" fill="#088C68"/>
<path d="M240 119C242.312 118.812 242.312 118.812 245 119C246.011 119.988 247.01 120.991 248 122C249.535 122.941 251.1 123.836 252.688 124.688C253.496 125.124 254.304 125.561 255.137 126.012C256.059 126.501 256.059 126.501 257 127C255 128 255 128 252.793 127.398C247.434 125.294 243.704 123.444 240 119Z" fill="#5DE2CE"/>
<path d="M211 91C214.97 91.5671 217.761 92.6134 221 95C222.812 97.6875 222.812 97.6875 224 100C220.023 100 218.851 98.5572 215.812 96.0625C214.911 95.3316 214.01 94.6007 213.082 93.8477C212.395 93.2379 211.708 92.6282 211 92C211 91.67 211 91.34 211 91Z" fill="#86E1BA"/>
<path d="M209 258C210.98 258 212.96 258 215 258C215 258.66 215 259.32 215 260C216.98 260.66 218.96 261.32 221 262C217.673 263.109 215.481 263.435 212 263C210.125 260.5 210.125 260.5 209 258Z" fill="#14A588"/>
<path d="M129 249C130.959 249.141 132.917 249.288 134.875 249.438C136.511 249.559 136.511 249.559 138.18 249.684C141 250 141 250 143 251C143 251.66 143 252.32 143 253C143.99 253.33 144.98 253.66 146 254C144 255 144 255 140.523 254.004C139.138 253.531 137.755 253.05 136.375 252.562C135.315 252.198 135.315 252.198 134.234 251.826C132.487 251.224 130.743 250.613 129 250C129 249.67 129 249.34 129 249Z" fill="#059978"/>
<path d="M137 187C136.01 188.485 136.01 188.485 135 190C134.01 190 133.02 190 132 190C132 191.32 132 192.64 132 194C130.35 194.33 128.7 194.66 127 195C127.835 189.156 131.15 186.35 137 187Z" fill="#06CEB3"/>
<path d="M78 109C75.5 111.978 72.9529 112.946 69.3125 114.188C68.3186 114.532 67.3248 114.876 66.3008 115.231C65.5415 115.485 64.7823 115.739 64 116C63.67 115.34 63.34 114.68 63 114C75.362 107.681 75.362 107.681 78 109Z" fill="#63E1D1"/>
<path d="M242 30C242 33 242 33 239.375 35.918C238.258 37.0155 237.132 38.1051 236 39.1875C235.428 39.7463 234.855 40.3051 234.266 40.8809C232.85 42.2607 231.426 43.6313 230 45C229.34 44.67 228.68 44.34 228 44C232.231 38.8024 236.48 33.8848 242 30Z" fill="#1A300C"/>
<path d="M265 175C270.94 175 276.88 175 283 175C278.823 177.088 276.348 177.37 271.75 177.625C270.487 177.7 269.223 177.775 267.922 177.852C266.958 177.901 265.993 177.95 265 178C265 177.01 265 176.02 265 175Z" fill="#11D4C1"/>
<path d="M222 215C222.33 215.99 222.66 216.98 223 218C221.76 219.322 220.507 220.632 219.25 221.938C218.554 222.668 217.858 223.399 217.141 224.152C214.994 226.005 213.765 226.608 211 227C214.509 222.816 218.081 218.804 222 215Z" fill="#01270D"/>
<path d="M71 29C71.33 29.66 71.66 30.32 72 31C72.66 31.33 73.32 31.66 74 32C70.4357 35.1499 67.5931 37.514 63 39C63.9563 37.7068 64.9151 36.4155 65.875 35.125C66.4087 34.4057 66.9423 33.6864 67.4922 32.9453C69 31 69 31 71 29Z" fill="#85E2BC"/>
<path d="M131 195C131.66 195 132.32 195 133 195C133.33 197.31 133.66 199.62 134 202C132.824 201.969 132.824 201.969 131.625 201.938C129.019 201.813 129.019 201.813 127 203C127.33 201.35 127.66 199.7 128 198C128.99 198 129.98 198 131 198C131 197.01 131 196.02 131 195Z" fill="#12BFA8"/>
<path d="M9 142C11 144 11 144 11.2429 145.924C11.2388 146.69 11.2347 147.456 11.2305 148.246C11.2285 149.083 11.2266 149.921 11.2246 150.783C11.2124 151.659 11.2001 152.535 11.1875 153.438C11.1869 154.31 11.1862 155.182 11.1855 156.08C11.1406 162.578 11.1406 162.578 10 166C9.34 166 8.68 166 8 166C8.33 158.08 8.66 150.16 9 142Z" fill="#41E4CF"/>
<path d="M119 244C122.3 244 125.6 244 129 244C129 244.99 129 245.98 129 247C125.7 247 122.4 247 119 247C119 246.01 119 245.02 119 244Z" fill="#10AA8D"/>
<path d="M168 180C170.062 180.438 170.062 180.438 172 181C172.33 182.98 172.66 184.96 173 187C171.35 186.67 169.7 186.34 168 186C167.618 184.344 167.286 182.675 167 181C167.33 180.67 167.66 180.34 168 180Z" fill="#000D0A"/>
<path d="M115 282C120.28 283.32 125.56 284.64 131 286C131 286.66 131 287.32 131 288C124.753 288.822 120.287 285.926 115 283C115 282.67 115 282.34 115 282Z" fill="#03613C"/>
<path d="M39 236C39.99 236.33 40.98 236.66 42 237C39 240 36 243 33 246C32.67 245.01 32.34 244.02 32 243C34.3333 240.667 36.6667 238.333 39 236Z" fill="#011608"/>
<path d="M38 194C38.99 194.33 39.98 194.66 41 195C41.9492 197.285 41.9492 197.285 42.6875 200.062C42.9389 200.982 43.1902 201.901 43.4492 202.848C43.631 203.558 43.8127 204.268 44 205C42.0781 204.289 42.0781 204.289 40 203C39.1719 200.836 39.1719 200.836 38.75 198.375C38.6005 197.558 38.4509 196.74 38.2969 195.898C38.1499 194.959 38.1499 194.959 38 194Z" fill="#06CDB3"/>
<path d="M188 173C189.32 173.66 190.64 174.32 192 175C191.67 176.98 191.34 178.96 191 181C189.68 181 188.36 181 187 181C187.33 178.36 187.66 175.72 188 173Z" fill="#000B05"/>
<path d="M40 62C40.66 62.99 41.32 63.98 42 65C41.01 65.33 40.02 65.66 39 66C38.6459 67.328 38.3148 68.6622 38 70C36.4375 71.75 36.4375 71.75 35 73C35.4923 65.4923 35.4923 65.4923 38.0625 63C38.7019 62.67 39.3413 62.34 40 62Z" fill="#94F6E6"/>
<path d="M185 254C190.439 253.782 194.871 253.896 200 256C200 256.33 200 256.66 200 257C194.72 256.67 189.44 256.34 184 256C184.33 255.34 184.66 254.68 185 254Z" fill="#22A78A"/>
<path d="M162 189C162.33 189.66 162.66 190.32 163 191C163.949 190.814 164.897 190.629 165.875 190.438C169 190 169 190 171 191C171 191.66 171 192.32 171 193C169.35 193.66 167.7 194.32 166 195C165.67 194.34 165.34 193.68 165 193C161.971 192.342 161.971 192.342 159 192C159.99 191.67 160.98 191.34 162 191C162 190.34 162 189.68 162 189Z" fill="#001E12"/>
<path d="M288 195C288.66 195 289.32 195 290 195C290.25 201.625 290.25 201.625 288 205C288 204.34 288 203.68 288 203C286.68 202.67 285.36 202.34 284 202C284.33 201.34 284.66 200.68 285 200C285.66 200 286.32 200 287 200C287.33 198.35 287.66 196.7 288 195Z" fill="#07C6AC"/>
<path d="M172 180C173.938 180.812 173.938 180.812 176 182C176.33 182.99 176.66 183.98 177 185C176.01 185 175.02 185 174 185C174 185.66 174 186.32 174 187C174.66 187.33 175.32 187.66 176 188C175.01 188.33 174.02 188.66 173 189C172.01 188.34 171.02 187.68 170 187C170.99 187 171.98 187 173 187C172.67 184.69 172.34 182.38 172 180Z" fill="#027E68"/>
<path d="M160 165.999C159.67 167.319 159.34 168.639 159 169.999C158.34 169.669 157.68 169.339 157 168.999C154.883 169.891 154.883 169.891 153 170.999C152.01 170.339 151.02 169.679 150 168.999C153.512 166.591 155.727 165.633 160 165.999Z" fill="#27C8B2"/>
<path d="M191 195C193.062 195.438 193.062 195.438 195 196C195 197.32 195 198.64 195 200C193.35 200 191.7 200 190 200C190 196 190 196 191 195Z" fill="#00231B"/>
<path d="M156 170C156.75 171.75 156.75 171.75 157 174C155.25 176.25 155.25 176.25 153 178C152.01 178 151.02 178 150 178C151.443 174.634 153.333 172.49 156 170Z" fill="#1FD2BA"/>
<path d="M247 168C247.99 168 248.98 168 250 168C250 169.32 250 170.64 250 172C250.99 172 251.98 172 253 172C252.67 173.65 252.34 175.3 252 177C249.5 174.75 249.5 174.75 247 172C247 170.68 247 169.36 247 168Z" fill="#1BD4BF"/>
<path d="M48 101C49.1364 104.409 48.8675 105.003 47.5625 108.188C47.275 108.903 46.9876 109.618 46.6914 110.355C46.3492 111.17 46.3492 111.17 46 112C45.34 112 44.68 112 44 112C44.2811 110.352 44.5752 108.707 44.875 107.062C45.0374 106.146 45.1998 105.229 45.3672 104.285C45.576 103.531 45.7848 102.777 46 102C46.66 101.67 47.32 101.34 48 101Z" fill="#70E0C1"/>
<path d="M105 99C105.66 99 106.32 99 107 99C107.33 99.99 107.66 100.98 108 102C107.34 102 106.68 102 106 102C105.536 102.928 105.536 102.928 105.062 103.875C104.375 105.25 103.688 106.625 103 108C102.01 107.67 101.02 107.34 100 107C100 106.34 100 105.68 100 105C100.99 104.67 101.98 104.34 103 104C104.219 101.496 104.219 101.496 105 99Z" fill="#67E8CD"/>
<path d="M44 61C44.66 61.33 45.32 61.66 46 62C43.03 65.63 40.06 69.26 37 73C37 68.3841 38.4403 66.5864 41.625 63.25C42.4087 62.5075 43.1925 61.765 44 61Z" fill="#88EBD4"/>
<path d="M47 51C47.99 51.33 48.98 51.66 50 52C49.1686 52.7232 49.1686 52.7232 48.3203 53.4609C47.5959 54.0926 46.8714 54.7242 46.125 55.375C45.4057 56.0015 44.6864 56.628 43.9453 57.2734C42.5923 58.4743 41.2792 59.7208 40 61C40.25 59.125 40.25 59.125 41 57C42.3247 56.3163 43.6586 55.6504 45 55C46.268 52.9664 46.268 52.9664 47 51Z" fill="#1E3516"/>
<path d="M255 271C256.625 271.141 258.25 271.288 259.875 271.438C260.78 271.519 261.685 271.6 262.617 271.684C265 272 265 272 267 273C267 273.66 267 274.32 267 275C266.01 275.33 265.02 275.66 264 276C262.656 275.014 261.324 274.012 260 273C257.351 272.286 257.351 272.286 255 272C255 271.67 255 271.34 255 271Z" fill="#049770"/>
<path d="M243 287C244.938 287.375 244.938 287.375 247 288C247.33 288.66 247.66 289.32 248 290C249.114 289.938 250.227 289.876 251.375 289.812C253.169 289.905 253.169 289.905 255 290C255.99 291.485 255.99 291.485 257 293C247.827 292.807 247.827 292.807 244.375 289.438C243.921 288.633 243.468 287.829 243 287Z" fill="#00814E"/>
<path d="M117 91C117.66 91.33 118.32 91.66 119 92C118 95 118 95 116.152 96.168C115.421 96.5044 114.691 96.8409 113.938 97.1875C113.204 97.5317 112.471 97.8759 111.715 98.2305C110.866 98.6114 110.866 98.6114 110 99C111.682 95.2598 113.69 93.4387 117 91Z" fill="#264B20"/>
<path d="M133 32C133 32.99 133 33.98 133 35C130 37 130 37 127 37C127 36.34 127 35.68 127 35C126.01 34.67 125.02 34.34 124 34C126.97 33.34 129.94 32.68 133 32Z" fill="#BEF1D9"/>
<path d="M42 236C42.66 236 43.32 236 44 236C46 239 46 239 45.625 241.188C45.4188 241.786 45.2125 242.384 45 243C44.34 242.67 43.68 242.34 43 242C43 241.34 43 240.68 43 240C42.34 240 41.68 240 41 240C41.33 238.68 41.66 237.36 42 236Z" fill="#109F7F"/>
<path d="M225 215C226.32 215.33 227.64 215.66 229 216C227.02 217.98 225.04 219.96 223 222C222.34 221.67 221.68 221.34 221 221C222.32 219.02 223.64 217.04 225 215Z" fill="#04BB9C"/>
<path d="M180 180C181.98 180.495 181.98 180.495 184 181C184 181.66 184 182.32 184 183C183.34 183 182.68 183 182 183C181.67 184.32 181.34 185.64 181 187C180.34 187 179.68 187 179 187C179.33 184.69 179.66 182.38 180 180Z" fill="#000302"/>
<path d="M232 42C232.33 42.66 232.66 43.32 233 44C232.01 45.485 232.01 45.485 231 47C228.03 46.505 228.03 46.505 225 46C224.67 45.01 224.34 44.02 224 43C225.423 43.3094 225.423 43.3094 226.875 43.625C227.906 43.7488 228.938 43.8725 230 44C230.66 43.34 231.32 42.68 232 42Z" fill="#94DFB6"/>
<path d="M117 39C119.721 42.175 121.828 44.952 123 49C122.67 49.99 122.34 50.98 122 52C121.159 50.3997 120.328 48.7946 119.5 47.1875C118.804 45.8475 118.804 45.8475 118.094 44.4805C117 42 117 42 117 39Z" fill="#ADF8E2"/>
<path d="M67 31C67.66 31 68.32 31 69 31C67.444 34.8194 65.044 37.2604 62 40C61.34 40 60.68 40 60 40C61.2353 36.294 63.1974 34.6625 66 32C66.33 31.67 66.66 31.34 67 31Z" fill="#13230B"/>
<path d="M127 249C126.34 249 125.68 249 125 249C125 249.66 125 250.32 125 251C123.35 251 121.7 251 120 251C119.67 251.66 119.34 252.32 119 253C119 252.01 119 251.02 119 250C118.34 249.67 117.68 249.34 117 249C120.663 248.251 123.424 247.762 127 249Z" fill="#058E70"/>
<path d="M114 249C114.99 249.33 115.98 249.66 117 250C115.35 250.66 113.7 251.32 112 252C112 251.34 112 250.68 112 250C112.66 249.67 113.32 249.34 114 249ZM110 252C110.66 252.33 111.32 252.66 112 253C110.75 254.562 110.75 254.562 109 256C106.812 255.688 106.812 255.688 105 255C107.375 253.438 107.375 253.438 110 252Z" fill="#0F9779"/>
<path d="M52.0004 220C53.9804 220.495 53.9804 220.495 56.0004 221C54.8487 223.468 53.9526 225.048 52.0004 227C50.9559 223.867 51.0662 223.01 52.0004 220Z" fill="#0CBDA4"/>
<path d="M91 201C92.875 201.25 92.875 201.25 95 202C96.25 204.062 96.25 204.062 97 206C96.01 205.67 95.02 205.34 94 205C93.01 205 92.02 205 91 205C91 203.68 91 202.36 91 201Z" fill="#0BCCB8"/>
<path d="M168 186C169.65 187.65 171.3 189.3 173 191C172.34 191.66 171.68 192.32 171 193C171 192.34 171 191.68 171 191C168.69 190.67 166.38 190.34 164 190C165.32 189.67 166.64 189.34 168 189C168 188.01 168 187.02 168 186Z" fill="#03AC94"/>
<path d="M276.562 268.938C277.769 268.968 277.769 268.968 279 269C276.25 273.875 276.25 273.875 274 275C273.618 273.344 273.286 271.675 273 270C274 269 274 269 276.562 268.938Z" fill="#0F9A7A"/>
<path d="M173 195C173.66 195 174.32 195 175 195C175 196.65 175 198.3 175 200C173.68 200.33 172.36 200.66 171 201C170.67 200.34 170.34 199.68 170 199C171.375 197 171.375 197 173 195Z" fill="#016E5C"/>
<path d="M180 188C181.65 188.33 183.3 188.66 185 189C184.67 189.99 184.34 190.98 184 192C182.35 191.67 180.7 191.34 179 191C179.33 190.01 179.66 189.02 180 188Z" fill="#000504"/>
<path d="M142 140C145.112 141.498 148.053 143.199 151 145C150.01 145.495 150.01 145.495 149 146C145.938 144.75 145.938 144.75 143 143C142.67 142.01 142.34 141.02 142 140Z" fill="#41E8CD"/>
<path d="M213 228C210.688 230.063 210.688 230.063 208 232C207.01 231.67 206.02 231.34 205 231C206.855 227.29 209.208 226.736 213 228Z" fill="#02AA84"/>
<path d="M8 189C14.75 190.625 14.75 190.625 17 194C11.4615 193.508 11.4615 193.508 9.125 190.938C8.75375 190.298 8.3825 189.659 8 189Z" fill="#01B894"/>
<path d="M196 171C196.66 171 197.32 171 198 171C197.67 172.65 197.34 174.3 197 176C195.35 176 193.7 176 192 176C192.66 175.67 193.32 175.34 194 175C195.134 172.983 195.134 172.983 196 171Z" fill="#0DCEB6"/>
<path d="M229 106C231.648 108.578 233.944 110.916 236 114C233.245 113.62 232.18 113.193 230.25 111.125C229 109 229 109 229 106Z" fill="#7DEDD4"/>
<path d="M234 278C236.915 279.074 238.778 279.778 241 282C240.67 282.99 240.34 283.98 240 285C237.959 283.384 235.959 281.714 234 280C234 279.34 234 278.68 234 278Z" fill="#00805A"/>
<path d="M98 273C101.688 273.498 103.605 274.101 106 277C105.01 277.495 105.01 277.495 104 278C101.969 277.066 99.9647 276.068 98 275C98 274.34 98 273.68 98 273Z" fill="#027F5A"/>
<path d="M233 114C235.886 114.398 236.822 114.79 238.75 117.062C239.162 117.702 239.575 118.341 240 119C237.625 118.75 237.625 118.75 235 118C233.688 115.938 233.688 115.938 233 114Z" fill="#66DFC3"/>
<path d="M113 92C113.99 92.33 114.98 92.66 116 93C110.25 98 110.25 98 108 98C109.37 94.8388 109.989 94.0073 113 92Z" fill="#7EE9C7"/>
<path d="M192 81C195.375 80.875 195.375 80.875 199 81C199.66 81.66 200.32 82.32 201 83C198.085 83.8097 196.539 84.2185 193.688 83.0625C193.131 82.7119 192.574 82.3613 192 82C192 81.67 192 81.34 192 81Z" fill="#7BC59D"/>
<path d="M189 77.9999C193.554 77.6306 193.554 77.6306 195.812 79.4999C196.204 79.9949 196.596 80.4899 197 80.9999C196.01 81.3299 195.02 81.6599 194 81.9999C191.312 80.6249 191.312 80.6249 189 78.9999C189 78.6699 189 78.3399 189 77.9999Z" fill="#9EF8DF"/>
</svg>
